<?xml version="1.0" encoding="utf-8"?>
<!-- Generator: Adobe Illustrator 18.1.1, SVG Export Plug-In . SVG Version: 6.00 Build 0)  -->
<!DOCTYPE svg PUBLIC "-//W3C//DTD SVG 1.1//EN" "http://www.w3.org/Graphics/SVG/1.1/DTD/svg11.dtd">
<svg version="1.1" id="Layer_1" xmlns="http://www.w3.org/2000/svg" xmlns:xlink="http://www.w3.org/1999/xlink" x="0px" y="0px"
	 viewBox="0 0 216 216" enable-background="new 0 0 216 216" xml:space="preserve">
<g>
	<path fill="#567897" d="M49.8,96.9c0-0.1,0.1-0.3,0.1-0.4c0.2-1.1,0.8-1.9,1.8-2.5c0.7-0.4,1.4-0.6,2.2-0.7s1.7-0.2,2.5-0.3
		c0.1,0,0.2,0,0.2-0.2c0-0.4,0-0.7,0-1.1c-0.1-0.7-0.5-1.2-1.2-1.3c-0.6-0.1-1.1,0-1.5,0.4c-0.3,0.2-0.5,0.6-0.6,1
		c0,0.2-0.2,0.5-0.6,0.4c-0.6-0.1-1.3-0.1-1.9-0.2c-0.3,0-0.6-0.2-0.5-0.6c0.2-0.9,0.6-1.7,1.4-2.2c0.6-0.5,1.4-0.8,2.2-0.9
		c0.9-0.2,1.8-0.2,2.7,0c0.8,0.1,1.5,0.4,2.1,0.9s1,1.1,1,1.9c0.1,0.6,0.1,1.2,0.1,1.8c0,1.3,0,2.7,0,4c0,0.6,0.2,1.1,0.6,1.6
		c0.1,0.2,0.2,0.3,0.3,0.5s0.1,0.3-0.1,0.5c-0.5,0.5-1.1,1-1.6,1.4c-0.2,0.2-0.5,0.2-0.7,0c-0.4-0.4-0.8-0.8-1.1-1.3l-0.1-0.1
		c-0.2,0.2-0.4,0.4-0.6,0.5c-0.6,0.5-1.3,0.9-2,1c-0.9,0.1-1.8,0.2-2.6-0.2c-0.8-0.3-1.4-0.9-1.6-1.8c-0.1-0.3-0.2-0.6-0.2-1
		C49.8,97.6,49.8,97.3,49.8,96.9z M56.5,95.5c0-0.2,0-0.4,0-0.6c0-0.1,0-0.2-0.2-0.2c-0.5,0-1.1,0.1-1.6,0.2s-0.9,0.4-1.2,0.8
		c-0.4,0.6-0.5,1.3-0.3,2c0.3,0.9,1.1,1.1,1.8,0.8c0.7-0.3,1-0.8,1.3-1.5C56.5,96.6,56.5,96.1,56.5,95.5z"/>
	<path fill="#567897" d="M65.3,90.3c0.5-1.4,1.5-2.1,2.9-2.1c1.5,0,2.4,0.8,3,2.1c0.1-0.2,0.2-0.4,0.3-0.6c0.6-0.9,1.4-1.4,2.5-1.5
		c1.2-0.1,2.2,0.3,2.9,1.3c0.3,0.4,0.5,0.9,0.5,1.4c0,0.7,0,1.5,0,2.2c0,2.4,0,4.8,0,7.2c0,0.4-0.1,0.5-0.5,0.5c-0.7,0-1.4,0-2,0
		c-0.4,0-0.5-0.2-0.5-0.5c0-2,0-4.1,0-6.1c0-0.6,0-1.2,0-1.8c0-0.2-0.1-0.4-0.1-0.6c-0.1-0.4-0.5-0.7-0.9-0.7
		c-0.7-0.1-1.3,0.2-1.6,0.8c-0.2,0.3-0.2,0.6-0.2,1c0,0.3,0,0.7,0,1c0,2.1,0,4.3,0,6.4c0,0.4-0.1,0.5-0.5,0.5c-0.7,0-1.4,0-2.1,0
		c-0.3,0-0.5-0.1-0.5-0.5c0-2.1,0-4.2,0-6.3c0-0.6,0-1.2-0.1-1.7s-0.2-0.9-0.7-1.1c-0.6-0.3-1.6-0.1-1.9,0.7c-0.1,0.3-0.2,0.7-0.2,1
		s0,0.7,0,1.1c0,2.1,0,4.2,0,6.2v0.1c0,0.3-0.2,0.5-0.5,0.5c-0.7,0-1.5,0-2.2,0c-0.3,0-0.4-0.2-0.4-0.5c0-2.6,0-5.2,0-7.8
		c0-1.2,0-2.4,0-3.6c0-0.4,0.1-0.5,0.5-0.5c0.6,0,1.3,0,1.9,0c0.3,0,0.5,0.1,0.5,0.5s0,0.8,0,1.2C65.2,90.2,65.2,90.2,65.3,90.3
		C65.2,90.3,65.2,90.3,65.3,90.3z"/>
	<path fill="#567897" d="M86.5,99.3c-0.2,0.2-0.4,0.4-0.6,0.5c-0.8,0.8-1.8,1.1-2.9,1.1c-0.6,0-1.2,0-1.7-0.3
		c-0.7-0.3-1.3-0.8-1.6-1.5c-0.4-0.8-0.4-1.7-0.3-2.6c0.2-1,0.7-1.7,1.5-2.3c0.6-0.4,1.3-0.7,2-0.8c0.7-0.1,1.4-0.2,2.2-0.3
		c0.3,0,0.5-0.1,0.8-0.1l0.1-0.1c0-0.5,0.1-1-0.1-1.6c-0.2-0.5-0.6-0.8-1.1-0.8c-0.6-0.1-1.1,0-1.6,0.4c-0.3,0.2-0.5,0.5-0.5,0.9
		c-0.1,0.3-0.3,0.5-0.6,0.4c-0.6-0.1-1.2-0.1-1.8-0.2c-0.5,0-0.6-0.2-0.5-0.7c0.2-0.6,0.4-1.2,0.9-1.7s1-0.9,1.6-1.1
		c1.1-0.4,2.3-0.5,3.5-0.4c0.7,0.1,1.4,0.3,2,0.7c0.7,0.5,1.1,1.1,1.3,1.9c0.1,0.5,0.1,1,0.1,1.5c0,1.4,0,2.9,0,4.3
		c0,0.7,0.2,1.3,0.6,1.8c0.1,0.2,0.2,0.3,0.3,0.5c0.1,0.2,0,0.3-0.1,0.4c-0.6,0.5-1.1,1-1.7,1.4c-0.2,0.2-0.5,0.2-0.7,0
		C87.2,100.2,86.8,99.8,86.5,99.3C86.6,99.4,86.6,99.4,86.5,99.3z M86.1,95.5c0-0.1,0-0.3,0-0.4c0-0.3,0-0.3-0.3-0.3c0,0,0,0-0.1,0
		c-0.6,0-1.2,0.1-1.7,0.3c-0.4,0.2-0.8,0.5-1,0.9s-0.2,0.9-0.2,1.3c0.1,1.1,1.1,1.6,2,1.2c0.6-0.3,1-0.8,1.2-1.5
		C86.1,96.6,86.1,96,86.1,95.5z"/>
	<path fill="#567897" d="M116.5,90.5c0-0.1,0.1-0.1,0.1-0.2c0.2-0.5,0.5-1,0.9-1.4c0.5-0.4,1-0.6,1.7-0.7c0.9-0.1,1.8,0.1,2.5,0.8
		c0.5,0.5,0.8,1.1,0.9,1.8c0.1,0.7,0.2,1.4,0.2,2.1c0,2.5,0,5,0,7.5c0,0.4-0.1,0.5-0.5,0.5c-0.7,0-1.4,0-2,0c-0.4,0-0.5-0.1-0.5-0.5
		c0-2.4,0-4.7,0-7.1c0-0.5,0-1-0.2-1.5c-0.3-0.7-1.1-0.9-1.7-0.6c-0.5,0.2-0.8,0.7-0.9,1.2s-0.2,1-0.2,1.4c0,2.1,0,4.3,0,6.4
		c0,0.4-0.1,0.5-0.5,0.5c-0.7,0-1.4,0-2.1,0c-0.3,0-0.5-0.2-0.5-0.5c0-3.8,0-7.6,0-11.4c0-0.3,0.2-0.5,0.5-0.5c0.7,0,1.3,0,2,0
		c0.3,0,0.5,0.1,0.5,0.5c0,0.5,0,0.9,0,1.4C116.4,90.4,116.5,90.4,116.5,90.5L116.5,90.5z"/>
	<path fill="#567897" d="M106.7,101c-1.3,0-2.4-0.4-3.3-1.3c-0.6-0.6-1-1.3-1.3-2.1c-0.4-1-0.5-2.1-0.5-3.2s0.2-2.2,0.6-3.2
		c0.5-1.1,1.2-2,2.3-2.5c0.6-0.3,1.2-0.4,1.9-0.5c1.1-0.1,2.1,0.2,3,0.8c0.6,0.4,1.1,1,1.5,1.6c0.6,1,0.9,2.2,1,3.4
		c0.1,0.8,0,1.5-0.1,2.2c-0.2,1.2-0.7,2.4-1.5,3.3C109.2,100.5,108,101,106.7,101z M104.9,94.3c0.1,0.7,0.1,1.4,0.1,2
		c0.1,0.6,0.2,1.1,0.5,1.6c0.6,1,1.8,0.9,2.4,0.1c0.3-0.5,0.5-1,0.5-1.6c0.1-0.8,0.1-1.6,0.1-2.4s-0.1-1.5-0.3-2.3
		c-0.2-0.5-0.4-1-1-1.1c-0.6-0.2-1.3,0-1.7,0.6c-0.2,0.4-0.4,0.7-0.4,1.1C105,93,104.9,93.7,104.9,94.3z"/>
	<path fill="#567897" d="M96.3,90.9c-0.1,0-0.1,0-0.2,0c-1.2,0-2.4,0-3.6,0c-0.4,0-0.5-0.1-0.5-0.5c0-0.5,0-1,0-1.5
		c0-0.4,0.1-0.5,0.5-0.5c2.4,0,4.8,0,7.3,0c0.4,0,0.5,0.2,0.5,0.5s0,0.7,0,1c0,0.4-0.1,0.8-0.4,1.1c-0.8,1.2-1.6,2.3-2.4,3.5
		c-0.5,0.7-1,1.4-1.5,2.1c0,0-0.1,0.1-0.1,0.2c0.1,0,0.2,0,0.2,0c0.6,0,1.3,0,1.9,0.2c0.7,0.1,1.4,0.4,2.1,0.8
		c0.3,0.1,0.4,0.4,0.4,0.7c0,0.6,0,1.1,0,1.7c0,0.4-0.3,0.5-0.6,0.4c-0.6-0.3-1.2-0.5-1.9-0.7c-1-0.2-2-0.3-2.9-0.2
		c-0.8,0.1-1.6,0.3-2.4,0.6c-0.2,0.1-0.4,0.2-0.6,0.3c-0.3,0.1-0.5,0-0.6-0.3v-0.1c0-0.7,0-1.4,0-2.1c0-0.4,0.3-0.7,0.5-1
		c0.8-1.2,1.6-2.4,2.5-3.5c0.6-0.8,1.1-1.6,1.7-2.4C96.2,91,96.3,90.9,96.3,90.9z"/>
</g>
<path fill="#567897" d="M52,113.6l-2.2-8.7H51l1.1,5l0.4,1.9L53,110l1.1-5.1h1.2l1.1,5l0.4,1.7l0.4-1.7l1.2-5h1.2l-2.2,8.7h-1.3
	l-1.1-5.2l-0.3-1.5l-1.4,6.7H52z"/>
<path fill="#567897" d="M65.1,110.8l1.2,0.2c-0.2,0.9-0.6,1.6-1.1,2.1s-1.2,0.7-2,0.7c-1,0-1.8-0.4-2.4-1.1
	c-0.6-0.8-0.9-1.9-0.9-3.3c0-1.5,0.3-2.6,0.9-3.4c0.6-0.8,1.4-1.2,2.4-1.2c0.9,0,1.7,0.4,2.3,1.2c0.6,0.8,0.9,1.9,0.9,3.4v0.4h-5.3
	c0,1,0.3,1.7,0.7,2.2s0.9,0.7,1.5,0.7C64.1,112.6,64.7,112,65.1,110.8z M61.1,108.4h4c-0.1-0.8-0.2-1.3-0.5-1.7
	c-0.4-0.5-0.9-0.8-1.5-0.8c-0.5,0-1,0.2-1.4,0.7C61.4,107.1,61.2,107.7,61.1,108.4z"/>
<path fill="#567897" d="M68.5,113.6h-1.1v-12h1.2v4.3c0.3-0.4,0.5-0.7,0.9-0.9c0.3-0.2,0.7-0.3,1.1-0.3c0.6,0,1.1,0.2,1.5,0.5
	c0.5,0.3,0.8,0.8,1.1,1.5c0.3,0.7,0.4,1.5,0.4,2.5c0,1.5-0.3,2.6-0.9,3.4s-1.3,1.2-2.2,1.2c-0.4,0-0.8-0.1-1.1-0.3
	c-0.3-0.2-0.6-0.5-0.9-1V113.6z M68.5,109.2c0,0.9,0.1,1.6,0.2,2c0.2,0.4,0.4,0.8,0.7,1c0.3,0.2,0.6,0.4,1,0.4
	c0.5,0,0.9-0.3,1.3-0.8c0.4-0.6,0.6-1.4,0.6-2.5s-0.2-2-0.6-2.5s-0.8-0.8-1.4-0.8c-0.5,0-0.9,0.3-1.3,0.8
	C68.7,107.3,68.5,108.1,68.5,109.2z"/>
<path fill="#567897" d="M75.5,111l1.2-0.2c0.1,0.6,0.3,1.1,0.6,1.4c0.3,0.3,0.7,0.4,1.3,0.4c0.5,0,0.9-0.1,1.2-0.4
	c0.3-0.3,0.4-0.6,0.4-1c0-0.3-0.1-0.6-0.4-0.8c-0.2-0.1-0.6-0.3-1.2-0.5c-0.9-0.3-1.6-0.5-1.9-0.7s-0.6-0.5-0.7-0.8
	c-0.2-0.3-0.3-0.7-0.3-1.2c0-0.7,0.2-1.3,0.7-1.8s1.1-0.7,2-0.7c0.5,0,1,0.1,1.4,0.3c0.4,0.2,0.7,0.4,0.9,0.8
	c0.2,0.3,0.4,0.8,0.4,1.4l-1.2,0.2c-0.1-0.9-0.6-1.4-1.5-1.4c-0.5,0-0.9,0.1-1.2,0.3c-0.3,0.2-0.4,0.5-0.4,0.8s0.1,0.6,0.4,0.8
	c0.1,0.1,0.6,0.3,1.3,0.5c1,0.3,1.6,0.6,1.9,0.8c0.3,0.2,0.5,0.4,0.7,0.8c0.2,0.3,0.2,0.7,0.2,1.2c0,0.8-0.3,1.5-0.8,2
	s-1.2,0.8-2.2,0.8C76.7,113.8,75.7,112.9,75.5,111z"/>
<path fill="#567897" d="M87.6,110.8l1.2,0.2c-0.2,0.9-0.6,1.6-1.1,2.1s-1.2,0.7-2,0.7c-1,0-1.8-0.4-2.4-1.1
	c-0.6-0.8-0.9-1.9-0.9-3.3c0-1.5,0.3-2.6,0.9-3.4s1.4-1.2,2.4-1.2c0.9,0,1.7,0.4,2.3,1.2c0.6,0.8,0.9,1.9,0.9,3.4v0.4h-5.3
	c0,1,0.3,1.7,0.7,2.2c0.4,0.5,0.9,0.7,1.5,0.7C86.6,112.6,87.3,112,87.6,110.8z M83.7,108.4h4c-0.1-0.8-0.2-1.3-0.5-1.7
	c-0.4-0.5-0.9-0.8-1.5-0.8c-0.5,0-1,0.2-1.4,0.7C83.9,107.1,83.7,107.7,83.7,108.4z"/>
<path fill="#567897" d="M89.7,113.6v-8.7h1.1v1.3c0.3-0.6,0.5-1,0.8-1.2c0.2-0.2,0.5-0.3,0.8-0.3c0.4,0,0.8,0.2,1.2,0.5l-0.4,1.4
	c-0.3-0.2-0.6-0.3-0.9-0.3s-0.5,0.1-0.7,0.3c-0.2,0.2-0.4,0.4-0.4,0.8c-0.2,0.6-0.2,1.2-0.2,1.8v4.5h-1.3V113.6z"/>
<path fill="#567897" d="M96.3,113.6l-2.7-8.7h1.3l1.5,5.2c0.2,0.6,0.3,1.2,0.5,1.7c0.1-0.5,0.3-1,0.4-1.6l1.6-5.3h1.2l-2.7,8.7
	C97.4,113.6,96.3,113.6,96.3,113.6z"/>
<path fill="#567897" d="M101,103.3v-1.7h1.2v1.7H101z M101,113.6v-8.7h1.2v8.7H101z"/>
<path fill="#567897" d="M108.4,110.4l1.2,0.2c-0.1,1-0.5,1.8-1,2.4c-0.5,0.5-1.2,0.8-2,0.8c-0.9,0-1.7-0.4-2.3-1.1
	c-0.6-0.8-0.9-1.9-0.9-3.4s0.3-2.6,0.9-3.4s1.4-1.1,2.3-1.1c0.7,0,1.4,0.2,1.9,0.7s0.8,1.1,1,2.1l-1.2,0.2c-0.1-0.6-0.3-1-0.6-1.3
	c-0.3-0.3-0.6-0.4-1-0.4c-0.6,0-1.1,0.3-1.5,0.8s-0.6,1.4-0.6,2.5c0,1.2,0.2,2,0.6,2.6c0.4,0.5,0.9,0.8,1.4,0.8s0.8-0.2,1.2-0.5
	C108.1,111.7,108.3,111.2,108.4,110.4z"/>
<path fill="#567897" d="M115.1,110.8l1.2,0.2c-0.2,0.9-0.6,1.6-1.1,2.1s-1.2,0.7-2,0.7c-1,0-1.8-0.4-2.4-1.1
	c-0.6-0.8-0.9-1.9-0.9-3.3c0-1.5,0.3-2.6,0.9-3.4s1.4-1.2,2.4-1.2c0.9,0,1.7,0.4,2.3,1.2c0.6,0.8,0.9,1.9,0.9,3.4v0.4H111
	c0,1,0.3,1.7,0.7,2.2c0.4,0.5,0.9,0.7,1.5,0.7C114.1,112.6,114.7,112,115.1,110.8z M111.1,108.4h4c-0.1-0.8-0.2-1.3-0.5-1.7
	c-0.4-0.5-0.9-0.8-1.5-0.8c-0.5,0-1,0.2-1.4,0.7C111.4,107.1,111.2,107.7,111.1,108.4z"/>
<path fill="#567897" d="M117,111l1.2-0.2c0.1,0.6,0.3,1.1,0.6,1.4c0.3,0.3,0.7,0.4,1.3,0.4c0.5,0,0.9-0.1,1.2-0.4
	c0.3-0.3,0.4-0.6,0.4-1c0-0.3-0.1-0.6-0.4-0.8c-0.2-0.1-0.6-0.3-1.2-0.5c-0.9-0.3-1.6-0.5-1.9-0.7s-0.6-0.5-0.7-0.8
	c-0.2-0.3-0.3-0.7-0.3-1.2c0-0.7,0.2-1.3,0.7-1.8s1.1-0.7,2-0.7c0.5,0,1,0.1,1.4,0.3c0.4,0.2,0.7,0.4,0.9,0.8
	c0.2,0.3,0.4,0.8,0.4,1.4l-1.2,0.2c-0.1-0.9-0.6-1.4-1.5-1.4c-0.5,0-0.9,0.1-1.2,0.3c-0.3,0.2-0.4,0.5-0.4,0.8s0.1,0.6,0.4,0.8
	c0.1,0.1,0.6,0.3,1.3,0.5c1,0.3,1.6,0.6,1.9,0.8c0.3,0.2,0.5,0.4,0.7,0.8c0.2,0.3,0.2,0.7,0.2,1.2c0,0.8-0.3,1.5-0.8,2
	s-1.2,0.8-2.2,0.8C118.3,113.8,117.3,112.9,117,111z"/>
<g>
	<polygon fill="#7E9FB7" points="21.8,86.4 25.8,88.2 30.7,86.4 25.8,84.5 	"/>
	<polygon fill="#7E9FB7" points="19.6,86.8 19.6,95.5 26.2,98.3 26.2,89.4 	"/>
	<polygon fill="#7E9FB7" points="26.9,89.2 26.9,97.6 33,95.1 33,87.2 	"/>
</g>
<g>
	<polygon fill="#7E9FB7" points="36,86.2 40.1,87.9 45,86.2 40.1,84.2 	"/>
	<polygon fill="#7E9FB7" points="33.9,86.5 33.9,95.2 40.5,98 40.5,89.1 	"/>
	<polygon fill="#7E9FB7" points="41.2,88.9 41.2,97.3 47.3,94.8 47.3,86.9 	"/>
</g>
<g>
	<polygon fill="#7E9FB7" points="58.1,74.5 62.1,76.2 67,74.5 62.1,72.5 	"/>
	<polygon fill="#7E9FB7" points="55.9,74.8 55.9,83.5 62.5,86.3 62.5,77.4 	"/>
	<polygon fill="#7E9FB7" points="63.2,77.2 63.2,85.7 69.3,83.1 69.3,75.2 	"/>
</g>
<g>
	<polygon fill="#7E9FB7" points="42.8,73.5 46.9,75.2 51.8,73.5 46.9,71.5 	"/>
	<polygon fill="#7E9FB7" points="40.7,73.8 40.7,82.5 47.3,85.3 47.3,76.4 	"/>
	<polygon fill="#7E9FB7" points="48,76.2 48,84.7 54.1,82.1 54.1,74.2 	"/>
</g>
<g>
	<polygon fill="#7E9FB7" points="29.3,98.9 33.4,100.6 38.3,98.9 33.4,96.9 	"/>
	<polygon fill="#7E9FB7" points="27.2,99.3 27.2,107.9 33.8,110.8 33.8,101.8 	"/>
	<polygon fill="#7E9FB7" points="34.5,101.6 34.5,110.1 40.6,107.6 40.6,99.7 	"/>
</g>
<g>
	<rect x="131.7" y="81.9" fill="#567897" width="1" height="41.8"/>
</g>
<g>
	<path fill="#567897" d="M146.1,90.3c0.5,0,0.9,0.1,1.3,0.2s0.7,0.3,1,0.6c0.3,0.3,0.5,0.6,0.6,1s0.2,0.8,0.2,1.3s-0.1,0.9-0.2,1.3
		c-0.2,0.4-0.4,0.7-0.6,1c-0.3,0.3-0.6,0.5-1,0.6s-0.8,0.2-1.3,0.2h-3.7v4.6h-1V90.3H146.1z M145.9,95.6c0.7,0,1.3-0.2,1.7-0.5
		c0.4-0.4,0.7-0.9,0.7-1.6s-0.2-1.3-0.7-1.6c-0.4-0.4-1-0.5-1.7-0.5h-3.5v4.4h3.5V95.6z"/>
	<path fill="#567897" d="M150.8,94.5c0.2-0.3,0.4-0.6,0.7-0.8c0.3-0.2,0.6-0.4,1-0.5s0.8-0.1,1.2-0.1c0.3,0,0.7,0,1,0.1
		s0.6,0.2,0.9,0.4s0.5,0.4,0.7,0.8c0.2,0.3,0.3,0.7,0.3,1.3v4.1c0,0.4,0.2,0.6,0.6,0.6c0.1,0,0.2,0,0.3-0.1v0.8c-0.1,0-0.2,0-0.3,0
		s-0.2,0-0.3,0c-0.2,0-0.4,0-0.6-0.1c-0.1-0.1-0.3-0.2-0.3-0.3c-0.1-0.1-0.1-0.3-0.2-0.4c0-0.2,0-0.3,0-0.5l0,0
		c-0.2,0.2-0.3,0.5-0.5,0.7s-0.4,0.4-0.6,0.5c-0.2,0.1-0.5,0.2-0.7,0.3c-0.3,0.1-0.6,0.1-1,0.1s-0.7,0-1-0.1s-0.6-0.2-0.8-0.4
		s-0.4-0.4-0.6-0.7c-0.1-0.3-0.2-0.6-0.2-1c0-0.5,0.1-1,0.4-1.3c0.2-0.3,0.6-0.5,1-0.7s0.8-0.3,1.3-0.3s1-0.1,1.5-0.2
		c0.2,0,0.4,0,0.5-0.1c0.2,0,0.3-0.1,0.4-0.2c0.1-0.1,0.2-0.2,0.2-0.3c0.1-0.1,0.1-0.3,0.1-0.5c0-0.3-0.1-0.6-0.2-0.8
		c-0.1-0.2-0.2-0.4-0.4-0.5s-0.4-0.2-0.6-0.2c-0.2,0-0.5-0.1-0.8-0.1c-0.6,0-1.1,0.1-1.5,0.4s-0.6,0.7-0.6,1.4h-0.9
		C150.6,95.2,150.7,94.8,150.8,94.5z M155.5,96.8c-0.1,0.1-0.2,0.2-0.3,0.2c-0.2,0.1-0.3,0.1-0.4,0.1c-0.4,0.1-0.8,0.1-1.2,0.2
		s-0.8,0.1-1.2,0.2s-0.6,0.3-0.9,0.5s-0.3,0.5-0.3,0.9c0,0.2,0,0.5,0.1,0.6c0.1,0.2,0.2,0.3,0.4,0.5c0.2,0.1,0.3,0.2,0.6,0.3
		c0.2,0.1,0.4,0.1,0.6,0.1c0.4,0,0.7-0.1,1-0.2s0.6-0.3,0.9-0.5c0.2-0.2,0.4-0.5,0.6-0.8c0.1-0.3,0.2-0.6,0.2-1L155.5,96.8
		L155.5,96.8z"/>
	<path fill="#567897" d="M159.3,93.3v1.8l0,0c0.2-0.6,0.6-1.1,1.1-1.5s1.1-0.5,1.8-0.5V94c-0.4,0-0.8,0-1.2,0.2
		c-0.3,0.1-0.7,0.3-0.9,0.6s-0.5,0.5-0.6,0.9c-0.1,0.3-0.2,0.7-0.2,1.1v4.1h-0.9v-7.7L159.3,93.3L159.3,93.3z"/>
	<path fill="#567897" d="M166.2,93.3v0.8h-1.6v5.2c0,0.3,0,0.6,0.1,0.7c0.1,0.2,0.3,0.3,0.6,0.3s0.5,0,0.8,0v0.8c-0.1,0-0.3,0-0.4,0
		c-0.1,0-0.3,0-0.4,0c-0.6,0-1.1-0.1-1.3-0.4c-0.2-0.2-0.4-0.7-0.4-1.4V94h-1.3v-0.8h1.3V91h0.9v2.3H166.2z"/>
	<path fill="#567897" d="M168.5,93.3v1.3l0,0c0.2-0.5,0.5-0.8,1-1.1s1-0.4,1.5-0.4s1,0.1,1.4,0.2s0.7,0.3,0.9,0.6
		c0.2,0.3,0.4,0.6,0.5,0.9c0.1,0.4,0.1,0.8,0.1,1.2v5H173v-4.8c0-0.3,0-0.6-0.1-0.9s-0.2-0.5-0.3-0.7s-0.4-0.4-0.6-0.5
		c-0.3-0.1-0.6-0.2-1-0.2s-0.7,0.1-1,0.2s-0.5,0.3-0.7,0.6c-0.2,0.2-0.4,0.5-0.5,0.8s-0.2,0.7-0.2,1.1v4.5h-0.9v-7.7L168.5,93.3
		L168.5,93.3z"/>
	<path fill="#567897" d="M176.3,98.5c0.1,0.4,0.2,0.7,0.5,1c0.2,0.3,0.5,0.5,0.8,0.7s0.7,0.3,1.2,0.3c0.7,0,1.2-0.2,1.6-0.5
		c0.4-0.4,0.7-0.8,0.8-1.4h0.9c-0.2,0.9-0.6,1.6-1.1,2c-0.5,0.5-1.3,0.7-2.3,0.7c-0.6,0-1.1-0.1-1.6-0.3s-0.8-0.5-1.1-0.9
		s-0.5-0.8-0.6-1.3s-0.2-1-0.2-1.6c0-0.5,0.1-1,0.2-1.5c0.1-0.5,0.3-0.9,0.6-1.3s0.6-0.7,1.1-0.9s1-0.4,1.6-0.4s1.1,0.1,1.6,0.4
		s0.8,0.6,1.1,1s0.5,0.9,0.6,1.4s0.2,1.1,0.1,1.6h-5.9C176.1,97.8,176.2,98.1,176.3,98.5z M180.9,95.6c-0.1-0.3-0.3-0.6-0.5-0.9
		s-0.5-0.5-0.8-0.6c-0.3-0.2-0.6-0.2-1-0.2s-0.7,0.1-1,0.2c-0.3,0.2-0.6,0.4-0.8,0.6c-0.2,0.3-0.4,0.5-0.5,0.9s-0.2,0.7-0.2,1h5
		C181.1,96.3,181.1,95.9,180.9,95.6z"/>
	<path fill="#567897" d="M184.2,93.3v1.8l0,0c0.2-0.6,0.6-1.1,1.1-1.5s1.1-0.5,1.8-0.5V94c-0.4,0-0.8,0-1.2,0.2
		c-0.3,0.1-0.7,0.3-0.9,0.6s-0.5,0.5-0.6,0.9c-0.1,0.3-0.2,0.7-0.2,1.1v4.1h-0.9v-7.7L184.2,93.3L184.2,93.3z"/>
</g>
<g>
	<path fill="#567897" d="M142.5,104.4l6.2,9l0,0v-9h1v10.7h-1.1l-6.2-9l0,0v9h-1v-10.7H142.5z"/>
	<path fill="#567897" d="M152.4,112.6c0.1,0.4,0.2,0.7,0.5,1c0.2,0.3,0.5,0.5,0.8,0.7s0.7,0.3,1.2,0.3c0.7,0,1.2-0.2,1.6-0.5
		c0.4-0.4,0.7-0.8,0.8-1.4h0.9c-0.2,0.9-0.6,1.6-1.1,2c-0.5,0.5-1.3,0.7-2.3,0.7c-0.6,0-1.1-0.1-1.6-0.3c-0.4-0.2-0.8-0.5-1.1-0.9
		s-0.5-0.8-0.6-1.3s-0.2-1-0.2-1.6c0-0.5,0.1-1,0.2-1.5s0.3-0.9,0.6-1.3s0.6-0.7,1.1-0.9s1-0.4,1.6-0.4s1.1,0.1,1.6,0.4
		s0.8,0.6,1.1,1s0.5,0.9,0.6,1.4s0.2,1.1,0.1,1.6h-5.9C152.3,111.9,152.3,112.2,152.4,112.6z M157.1,109.7c-0.1-0.3-0.3-0.6-0.5-0.9
		s-0.5-0.5-0.8-0.6c-0.3-0.2-0.6-0.2-1-0.2s-0.7,0.1-1,0.2c-0.3,0.2-0.6,0.4-0.8,0.6c-0.2,0.3-0.4,0.5-0.5,0.9
		c-0.1,0.3-0.2,0.7-0.2,1h5C157.3,110.4,157.2,110,157.1,109.7z"/>
	<path fill="#567897" d="M162.6,107.4v0.8H161v5.2c0,0.3,0,0.6,0.1,0.7c0.1,0.2,0.3,0.3,0.6,0.3s0.5,0,0.8,0v0.8c-0.1,0-0.3,0-0.4,0
		c-0.1,0-0.3,0-0.4,0c-0.6,0-1.1-0.1-1.3-0.4c-0.2-0.2-0.4-0.7-0.4-1.4v-5.3h-1.3v-0.8h1.3V105h0.9v2.3h1.7V107.4z"/>
	<path fill="#567897" d="M164.2,107.4l2,6.6l0,0l1.9-6.6h1.1l1.9,6.6l0,0l2-6.6h1l-2.5,7.7h-1l-1.9-6.5l0,0l-1.9,6.5h-1l-2.5-7.7
		H164.2z"/>
	<path fill="#567897" d="M179.9,107.5c0.5,0.2,0.8,0.5,1.1,0.9s0.5,0.8,0.7,1.3s0.2,1,0.2,1.6s-0.1,1.1-0.2,1.6
		c-0.2,0.5-0.4,0.9-0.7,1.3s-0.7,0.7-1.1,0.9c-0.5,0.2-1,0.3-1.6,0.3s-1.1-0.1-1.6-0.3c-0.5-0.2-0.8-0.5-1.1-0.9s-0.5-0.8-0.7-1.3
		s-0.2-1-0.2-1.6s0.1-1.1,0.2-1.6c0.2-0.5,0.4-0.9,0.7-1.3s0.7-0.7,1.1-0.9s1-0.3,1.6-0.3S179.4,107.3,179.9,107.5z M177.1,108.2
		c-0.3,0.2-0.6,0.4-0.8,0.7s-0.4,0.7-0.5,1.1s-0.2,0.8-0.2,1.2s0.1,0.8,0.2,1.2c0.1,0.4,0.3,0.7,0.5,1.1s0.5,0.6,0.8,0.7
		s0.7,0.3,1.2,0.3s0.8-0.1,1.2-0.3c0.3-0.2,0.6-0.4,0.8-0.7s0.4-0.7,0.5-1.1s0.2-0.8,0.2-1.2s-0.1-0.8-0.2-1.2
		c-0.1-0.4-0.3-0.7-0.5-1.1s-0.5-0.6-0.8-0.7c-0.3-0.2-0.7-0.3-1.2-0.3S177.4,108.1,177.1,108.2z"/>
	<path fill="#567897" d="M184.2,107.4v1.8l0,0c0.2-0.6,0.6-1.1,1.1-1.5c0.5-0.3,1.1-0.5,1.8-0.5v0.9c-0.4,0-0.8,0-1.2,0.2
		c-0.3,0.1-0.7,0.3-0.9,0.6c-0.3,0.2-0.5,0.5-0.6,0.9c-0.1,0.3-0.2,0.7-0.2,1.1v4.1h-0.9v-7.7L184.2,107.4L184.2,107.4z"/>
	<path fill="#567897" d="M189,104.4v6.7l4.3-3.7h1.3l-3.3,2.9l3.5,4.9h-1.2l-3.1-4.2l-1.5,1.3v2.9h-0.9v-10.7h0.9V104.4z"/>
</g>
<g>
	<path fill="#567897" d="M61.4,132.2c-0.1-0.2-0.3-0.4-0.5-0.5s-0.4-0.2-0.6-0.3c-0.2-0.1-0.5-0.1-0.7-0.1c-0.5,0-0.8,0.1-1.2,0.3
		c-0.3,0.2-0.6,0.4-0.8,0.7s-0.4,0.6-0.5,1S57,134,57,134.4c0,0.4,0,0.7,0.1,1.1c0.1,0.4,0.3,0.7,0.5,1s0.5,0.5,0.8,0.7
		s0.7,0.3,1.2,0.3c0.3,0,0.6-0.1,0.9-0.2c0.3-0.1,0.5-0.3,0.7-0.5s0.3-0.4,0.4-0.7s0.2-0.5,0.2-0.9h0.6c0,0.4-0.1,0.8-0.3,1.1
		s-0.3,0.6-0.6,0.9c-0.2,0.2-0.5,0.4-0.9,0.5c-0.3,0.1-0.7,0.2-1.1,0.2c-0.5,0-1-0.1-1.4-0.3s-0.7-0.5-1-0.8s-0.5-0.7-0.6-1.1
		c-0.1-0.4-0.2-0.9-0.2-1.3c0-0.5,0.1-0.9,0.2-1.3c0.1-0.4,0.3-0.8,0.6-1.1s0.6-0.6,1-0.8s0.9-0.3,1.4-0.3c0.3,0,0.6,0,0.9,0.1
		c0.3,0.1,0.6,0.2,0.8,0.4s0.5,0.4,0.6,0.7c0.2,0.3,0.3,0.6,0.3,0.9h-0.6C61.7,132.7,61.6,132.4,61.4,132.2z"/>
	<path fill="#567897" d="M63.3,132.9c0.1-0.4,0.3-0.8,0.6-1.1s0.6-0.6,1-0.8c0.4-0.2,0.9-0.3,1.4-0.3s1,0.1,1.4,0.3s0.7,0.5,1,0.8
		s0.5,0.7,0.6,1.1c0.1,0.4,0.2,0.9,0.2,1.3c0,0.5-0.1,0.9-0.2,1.3c-0.1,0.4-0.3,0.8-0.6,1.1c-0.3,0.3-0.6,0.6-1,0.8
		s-0.9,0.3-1.4,0.3s-1-0.1-1.4-0.3s-0.7-0.5-1-0.8c-0.3-0.3-0.5-0.7-0.6-1.1c-0.1-0.4-0.2-0.9-0.2-1.3
		C63.1,133.8,63.2,133.4,63.3,132.9z M63.9,135.4c0.1,0.4,0.3,0.7,0.5,1s0.5,0.5,0.8,0.7s0.7,0.3,1.2,0.3s0.8-0.1,1.2-0.3
		c0.3-0.2,0.6-0.4,0.8-0.7c0.2-0.3,0.4-0.6,0.5-1s0.1-0.7,0.1-1.1c0-0.4,0-0.7-0.1-1.1c-0.1-0.4-0.3-0.7-0.5-1s-0.5-0.5-0.8-0.7
		s-0.7-0.3-1.2-0.3s-0.8,0.1-1.2,0.3c-0.3,0.2-0.6,0.4-0.8,0.7c-0.2,0.3-0.4,0.6-0.5,1s-0.1,0.7-0.1,1.1
		C63.7,134.6,63.8,135,63.9,135.4z"/>
	<path fill="#567897" d="M71.2,130.9l4,5.8l0,0v-5.8h0.6v6.8h-0.7l-4-5.8l0,0v5.8h-0.6v-6.8H71.2z"/>
	<path fill="#567897" d="M77.7,136.3c0.1,0.2,0.3,0.4,0.5,0.6s0.4,0.2,0.7,0.3c0.3,0.1,0.6,0.1,0.9,0.1c0.2,0,0.4,0,0.6-0.1
		s0.4-0.1,0.6-0.2c0.2-0.1,0.3-0.3,0.5-0.4s0.2-0.4,0.2-0.6c0-0.2,0-0.4-0.1-0.5s-0.2-0.3-0.3-0.4c-0.1-0.1-0.3-0.2-0.5-0.2
		c-0.2-0.1-0.3-0.1-0.5-0.1l-1.5-0.4c-0.2-0.1-0.4-0.1-0.6-0.2s-0.4-0.2-0.5-0.3s-0.3-0.3-0.3-0.5s-0.1-0.4-0.1-0.7
		c0-0.2,0-0.4,0.1-0.6c0.1-0.2,0.2-0.4,0.4-0.6c0.2-0.2,0.4-0.4,0.7-0.5c0.3-0.1,0.7-0.2,1.2-0.2c0.3,0,0.7,0,1,0.1s0.6,0.2,0.8,0.4
		c0.2,0.2,0.4,0.4,0.5,0.7s0.2,0.6,0.2,0.9h-0.6c0-0.3-0.1-0.5-0.2-0.7s-0.2-0.4-0.4-0.5c-0.2-0.1-0.4-0.2-0.6-0.3s-0.4-0.1-0.7-0.1
		c-0.2,0-0.4,0-0.6,0.1c-0.2,0-0.4,0.1-0.5,0.2c-0.2,0.1-0.3,0.2-0.4,0.4s-0.1,0.4-0.1,0.6c0,0.2,0,0.3,0.1,0.4
		c0.1,0.1,0.1,0.2,0.2,0.3s0.2,0.1,0.3,0.2s0.3,0.1,0.4,0.1l1.7,0.4c0.2,0.1,0.5,0.1,0.7,0.2c0.2,0.1,0.4,0.2,0.6,0.3
		s0.3,0.3,0.4,0.5s0.1,0.4,0.1,0.7c0,0.1,0,0.2,0,0.3s-0.1,0.3-0.1,0.4c-0.1,0.1-0.1,0.3-0.3,0.4c-0.1,0.1-0.3,0.3-0.5,0.4
		c-0.2,0.1-0.4,0.2-0.7,0.3c-0.3,0.1-0.6,0.1-1,0.1s-0.8,0-1.1-0.1s-0.6-0.2-0.9-0.4s-0.4-0.4-0.6-0.7c-0.1-0.3-0.2-0.7-0.2-1.1h0.6
		C77.5,135.8,77.6,136.1,77.7,136.3z"/>
	<path fill="#567897" d="M83.8,130.9v4.2c0,0.4,0,0.7,0.1,1s0.2,0.5,0.4,0.7c0.2,0.2,0.4,0.3,0.6,0.4c0.2,0.1,0.5,0.1,0.8,0.1
		s0.6,0,0.8-0.1c0.2-0.1,0.5-0.2,0.6-0.4c0.2-0.2,0.3-0.4,0.4-0.7s0.1-0.6,0.1-1v-4.2h0.6v4.4c0,0.3,0,0.7-0.1,1s-0.3,0.6-0.5,0.8
		s-0.5,0.4-0.8,0.6c-0.3,0.1-0.7,0.2-1.2,0.2s-0.9-0.1-1.2-0.2c-0.3-0.1-0.6-0.3-0.8-0.6s-0.4-0.5-0.5-0.8s-0.1-0.6-0.1-1v-4.4H83.8
		z"/>
	<path fill="#567897" d="M90.4,130.9v6.3h3.8v0.6h-4.5V131h0.7V130.9z"/>
	<path fill="#567897" d="M98.7,130.9v0.6h-2.4v6.3h-0.6v-6.3h-2.4v-0.6H98.7z"/>
	<path fill="#567897" d="M100,130.9v6.8h-0.6v-6.8H100z"/>
	<path fill="#567897" d="M102.1,130.9l4,5.8l0,0v-5.8h0.6v6.8H106l-4-5.8l0,0v5.8h-0.6v-6.8H102.1z"/>
	<path fill="#567897" d="M113.5,137.7l-0.1-1.2l0,0c-0.1,0.2-0.3,0.5-0.4,0.6c-0.2,0.2-0.4,0.3-0.6,0.4s-0.4,0.2-0.7,0.2
		c-0.2,0.1-0.5,0.1-0.7,0.1c-0.5,0-1-0.1-1.4-0.3s-0.7-0.5-1-0.8s-0.5-0.7-0.6-1.1c-0.1-0.4-0.2-0.9-0.2-1.3c0-0.5,0.1-0.9,0.2-1.3
		c0.1-0.4,0.3-0.8,0.6-1.1c0.3-0.3,0.6-0.6,1-0.8s0.9-0.3,1.4-0.3c0.4,0,0.7,0,1,0.1s0.6,0.2,0.8,0.4c0.2,0.2,0.5,0.4,0.6,0.7
		s0.3,0.6,0.4,1h-0.6c0-0.2-0.1-0.4-0.2-0.6c-0.1-0.2-0.3-0.4-0.4-0.5s-0.4-0.3-0.7-0.4c-0.3-0.1-0.6-0.2-0.9-0.2
		c-0.5,0-0.8,0.1-1.2,0.3c-0.3,0.2-0.6,0.4-0.8,0.7c-0.2,0.3-0.4,0.6-0.5,1s-0.1,0.7-0.1,1.1c0,0.4,0,0.7,0.1,1.1
		c0.1,0.4,0.3,0.7,0.5,1s0.5,0.5,0.8,0.7s0.7,0.3,1.2,0.3c0.4,0,0.7-0.1,1-0.2s0.5-0.3,0.7-0.5s0.4-0.5,0.5-0.8s0.2-0.6,0.1-1H111
		v-0.6h2.9v3.5h-0.4V137.7z"/>
	<path fill="#567897" d="M120.9,130.9c0.3,0,0.6,0,0.8,0.1c0.2,0.1,0.5,0.2,0.6,0.4c0.2,0.2,0.3,0.4,0.4,0.6
		c0.1,0.2,0.1,0.5,0.1,0.8s0,0.6-0.1,0.8s-0.2,0.4-0.4,0.6c-0.2,0.2-0.4,0.3-0.6,0.4c-0.2,0.1-0.5,0.1-0.8,0.1h-2.4v2.9h-0.6v-6.8
		L120.9,130.9L120.9,130.9z M120.7,134.2c0.5,0,0.8-0.1,1.1-0.3c0.3-0.2,0.4-0.6,0.4-1c0-0.5-0.1-0.8-0.4-1s-0.6-0.3-1.1-0.3h-2.2
		v2.8h2.2V134.2z"/>
	<path fill="#567897" d="M125.9,130.9l2.7,6.8h-0.7l-0.8-2.1H124l-0.8,2.1h-0.7l2.7-6.8H125.9z M126.8,135l-1.3-3.5l-1.4,3.5H126.8z
		"/>
	<path fill="#567897" d="M132.3,130.9c0.3,0,0.5,0,0.8,0.1s0.5,0.2,0.7,0.3s0.3,0.3,0.4,0.6s0.2,0.5,0.2,0.8c0,0.4-0.1,0.8-0.3,1.1
		s-0.6,0.5-1,0.6l0,0c0.2,0,0.4,0.1,0.6,0.2c0.1,0.1,0.3,0.2,0.4,0.3c0.1,0.1,0.2,0.3,0.2,0.5s0.1,0.4,0.1,0.6c0,0.1,0,0.3,0,0.4
		c0,0.2,0,0.3,0,0.5s0,0.3,0.1,0.5c0,0.1,0.1,0.3,0.2,0.3H134c0-0.1-0.1-0.1-0.1-0.2c0-0.1,0-0.2,0-0.3s0-0.2,0-0.3s0-0.2,0-0.2
		c0-0.2,0-0.5-0.1-0.7c0-0.2-0.1-0.5-0.2-0.6s-0.2-0.3-0.4-0.5s-0.4-0.2-0.7-0.2H130v3h-0.6v-6.8L132.3,130.9L132.3,130.9z
		 M132.2,134.1c0.2,0,0.4,0,0.6-0.1c0.2-0.1,0.3-0.1,0.5-0.3c0.1-0.1,0.2-0.3,0.3-0.4c0.1-0.2,0.1-0.3,0.1-0.6c0-0.4-0.1-0.7-0.4-1
		c-0.2-0.2-0.6-0.4-1.1-0.4h-2.4v2.7h2.4V134.1z"/>
	<path fill="#567897" d="M140.2,130.9v0.6h-2.4v6.3h-0.6v-6.3h-2.4v-0.6H140.2z"/>
	<path fill="#567897" d="M141.6,130.9l4,5.8l0,0v-5.8h0.6v6.8h-0.7l-4-5.8l0,0v5.8h-0.6v-6.8H141.6z"/>
	<path fill="#567897" d="M152.3,130.9v0.6h-4.1v2.5h3.8v0.6h-3.8v2.7h4.1v0.6h-4.7v-6.8h4.7V130.9z"/>
	<path fill="#567897" d="M156.3,130.9c0.3,0,0.5,0,0.8,0.1s0.5,0.2,0.7,0.3s0.3,0.3,0.4,0.6s0.2,0.5,0.2,0.8c0,0.4-0.1,0.8-0.3,1.1
		s-0.6,0.5-1,0.6l0,0c0.2,0,0.4,0.1,0.6,0.2c0.1,0.1,0.3,0.2,0.4,0.3c0.1,0.1,0.2,0.3,0.2,0.5s0.1,0.4,0.1,0.6c0,0.1,0,0.3,0,0.4
		c0,0.2,0,0.3,0,0.5s0,0.3,0.1,0.5c0,0.1,0.1,0.3,0.2,0.3H158c0-0.1-0.1-0.1-0.1-0.2c0-0.1,0-0.2,0-0.3s0-0.2,0-0.3s0-0.2,0-0.2
		c0-0.2,0-0.5-0.1-0.7c0-0.2-0.1-0.5-0.2-0.6s-0.2-0.3-0.4-0.5s-0.4-0.2-0.7-0.2H154v3h-0.6v-6.8L156.3,130.9L156.3,130.9z
		 M156.3,134.1c0.2,0,0.4,0,0.6-0.1c0.2-0.1,0.3-0.1,0.5-0.3c0.1-0.1,0.2-0.3,0.3-0.4c0.1-0.2,0.1-0.3,0.1-0.6c0-0.4-0.1-0.7-0.4-1
		c-0.2-0.2-0.6-0.4-1.1-0.4h-2.4v2.7h2.4V134.1z"/>
</g>
<g>
	<path fill="#567897" d="M200.4,149.9H15.7c-3.7,0-6.7-3-6.7-6.7v-72c0-3.7,3-6.7,6.7-6.7h184.7c3.7,0,6.7,3,6.7,6.7v72
		C207.1,146.9,204.1,149.9,200.4,149.9z M15.7,65.5c-3.1,0-5.7,2.6-5.7,5.7v72c0,3.1,2.6,5.7,5.7,5.7h184.7c3.1,0,5.7-2.6,5.7-5.7
		v-72c0-3.1-2.6-5.7-5.7-5.7H15.7z"/>
</g>
</svg>
