<?xml version="1.0" encoding="utf-8"?>
<!-- Generator: Adobe Illustrator 16.0.0, SVG Export Plug-In . SVG Version: 6.00 Build 0)  -->
<!DOCTYPE svg PUBLIC "-//W3C//DTD SVG 1.1//EN" "http://www.w3.org/Graphics/SVG/1.1/DTD/svg11.dtd">
<svg version="1.1" id="Layer_1" xmlns="http://www.w3.org/2000/svg" xmlns:xlink="http://www.w3.org/1999/xlink" x="0px" y="0px"
	 width="432px" height="432px" viewBox="0 0 432 432" enable-background="new 0 0 432 432" xml:space="preserve">
<g>
	<g>
		<path fill="#567897" d="M159.81,164.33l-22.66,84.56h-21.99l22.66-84.56H159.81z"/>
		<path fill="#567897" d="M206.22,189.92H185.8l1.68-6.27c0.78-2.92,1.02-4.79,0.71-5.59c-0.31-0.8-1.07-1.2-2.29-1.2
			c-1.32,0-2.47,0.54-3.44,1.62c-0.97,1.08-1.75,2.72-2.33,4.91c-0.76,2.82-0.94,4.95-0.56,6.38c0.35,1.43,1.95,3.15,4.83,5.17
			c8.23,5.81,13.12,10.58,14.66,14.3c1.54,3.73,1.2,9.73-1.02,18.02c-1.61,6.02-3.51,10.46-5.68,13.32
			c-2.18,2.86-5.54,5.25-10.1,7.18c-4.56,1.93-9.52,2.9-14.88,2.9c-5.88,0-10.61-1.12-14.17-3.34c-3.56-2.23-5.53-5.07-5.89-8.52
			c-0.36-3.45,0.3-8.34,2-14.67l1.48-5.54h20.42l-2.76,10.29c-0.85,3.17-1.11,5.21-0.78,6.11c0.33,0.91,1.23,1.36,2.69,1.36
			c1.46,0,2.71-0.57,3.73-1.72c1.02-1.15,1.84-2.85,2.44-5.12c1.33-4.98,1.53-8.24,0.58-9.77c-0.98-1.53-3.73-4.09-8.23-7.68
			c-4.5-3.62-7.41-6.25-8.75-7.89c-1.34-1.64-2.2-3.9-2.59-6.79c-0.39-2.89,0.01-6.58,1.22-11.07c1.74-6.48,3.83-11.21,6.29-14.21
			c2.46-2.99,5.75-5.34,9.9-7.02c4.14-1.69,8.83-2.53,14.05-2.53c5.71,0,10.33,0.92,13.86,2.77c3.53,1.85,5.57,4.17,6.12,6.97
			c0.56,2.8-0.07,7.56-1.87,14.28L206.22,189.92z"/>
		<path fill="#567897" d="M259.81,164.33l-10.08,84.56h-22.47l2.89-15.2h-7.87l-5.39,15.2h-22.73l33.87-84.56H259.81z M233.59,218.7
			c1.45-9.58,3.51-21.41,6.17-35.51c-6.58,16.19-11.16,28.03-13.74,35.51H233.59z"/>
		<path fill="#567897" d="M317.59,201.15H295.6l3.94-14.7c1.14-4.27,1.62-6.94,1.44-8c-0.18-1.06-1.08-1.59-2.68-1.59
			c-1.81,0-3.13,0.64-3.97,1.93c-0.83,1.29-1.82,4.07-2.97,8.36l-10.53,39.27c-1.1,4.11-1.57,6.79-1.42,8.04
			c0.15,1.25,1.08,1.88,2.79,1.88c1.64,0,2.88-0.63,3.72-1.88c0.84-1.26,1.88-4.21,3.13-8.85l2.85-10.63h21.99l-0.88,3.29
			c-2.34,8.75-4.63,14.96-6.84,18.62c-2.22,3.66-5.81,6.87-10.78,9.62c-4.97,2.76-10.55,4.13-16.75,4.13
			c-6.44,0-11.44-1.17-14.99-3.5c-3.55-2.33-5.46-5.56-5.71-9.69c-0.25-4.12,0.73-10.33,2.95-18.62l6.62-24.7
			c1.63-6.09,3.07-10.66,4.3-13.71c1.24-3.05,3.27-5.98,6.09-8.8c2.83-2.82,6.3-5.04,10.4-6.66c4.11-1.62,8.54-2.43,13.32-2.43
			c6.48,0,11.49,1.25,15.03,3.75c3.54,2.5,5.47,5.62,5.8,9.36c0.32,3.74-0.57,9.55-2.69,17.45L317.59,201.15z"/>
		<path fill="#567897" d="M373.35,164.33l-10.08,84.56H340.8l2.89-15.2h-7.86l-5.39,15.2H307.7l33.87-84.56H373.35z M347.13,218.7
			c1.45-9.58,3.51-21.41,6.17-35.51c-6.58,16.19-11.16,28.03-13.74,35.51H347.13z"/>
	</g>
	<g>
		<path fill="#567897" d="M82.32,260l-0.2,1.15h-4.18l-2.44,12.98h-1.16l2.44-12.98H72.6l0.2-1.15H82.32z"/>
		<path fill="#567897" d="M81.86,263.91l-0.44,2.36h0.03c0.34-0.74,0.76-1.34,1.26-1.8c0.5-0.46,1.14-0.69,1.93-0.69h0.29
			c0.06,0,0.11,0,0.15,0c0.05,0,0.09,0.01,0.14,0.02l-0.24,1.25c-0.1,0-0.2,0-0.31-0.01c-0.1-0.01-0.2-0.01-0.31-0.01
			c-0.48,0.01-0.9,0.12-1.27,0.33c-0.37,0.21-0.69,0.49-0.96,0.84s-0.5,0.75-0.67,1.2c-0.18,0.45-0.31,0.91-0.4,1.38l-0.99,5.34
			h-1.06l1.88-10.21H81.86z"/>
		<path fill="#567897" d="M90.42,274.12l0.31-1.86h-0.03c-0.33,0.61-0.77,1.11-1.32,1.52c-0.55,0.41-1.16,0.61-1.82,0.61
			c-0.39,0-0.74-0.05-1.06-0.15c-0.32-0.1-0.61-0.26-0.84-0.47c-0.24-0.22-0.42-0.5-0.55-0.85c-0.13-0.35-0.2-0.77-0.2-1.26
			c0-0.28,0.04-0.68,0.14-1.21l1.21-6.55h1.07l-1.23,6.59c-0.03,0.16-0.06,0.33-0.09,0.51c-0.02,0.18-0.03,0.35-0.03,0.52
			c0,0.33,0.05,0.61,0.15,0.85c0.1,0.24,0.24,0.43,0.41,0.57c0.17,0.14,0.37,0.25,0.59,0.32c0.22,0.07,0.45,0.1,0.69,0.1
			c0.4,0,0.77-0.1,1.13-0.3s0.69-0.48,0.99-0.84c0.3-0.36,0.57-0.8,0.79-1.33c0.23-0.52,0.4-1.1,0.53-1.75l0.97-5.25h1.08
			l-1.89,10.21H90.42z"/>
		<path fill="#567897" d="M94.98,272.05c0.14,0.33,0.33,0.59,0.56,0.79c0.23,0.2,0.5,0.34,0.8,0.42c0.3,0.08,0.61,0.12,0.91,0.12
			c0.24,0,0.49-0.04,0.75-0.11c0.26-0.07,0.5-0.18,0.72-0.33c0.22-0.15,0.39-0.35,0.54-0.58c0.14-0.24,0.21-0.52,0.21-0.85
			c0-0.34-0.07-0.63-0.21-0.85c-0.14-0.22-0.32-0.42-0.55-0.58c-0.22-0.17-0.47-0.31-0.76-0.44c-0.28-0.12-0.57-0.25-0.85-0.38
			s-0.57-0.27-0.85-0.43s-0.54-0.34-0.76-0.55c-0.22-0.22-0.4-0.47-0.54-0.77c-0.14-0.3-0.2-0.66-0.2-1.08c0-0.5,0.1-0.93,0.31-1.28
			s0.47-0.64,0.78-0.86c0.32-0.23,0.67-0.39,1.06-0.5c0.39-0.11,0.76-0.16,1.11-0.16c0.47,0,0.89,0.06,1.28,0.18
			c0.39,0.12,0.72,0.31,1,0.57c0.28,0.26,0.49,0.6,0.65,1.02c0.15,0.42,0.22,0.92,0.21,1.51h-1.07c0.02-0.4-0.02-0.73-0.12-1.01
			c-0.1-0.28-0.25-0.51-0.43-0.69s-0.41-0.32-0.67-0.41c-0.26-0.08-0.54-0.13-0.83-0.13c-0.24,0-0.49,0.03-0.74,0.08
			c-0.25,0.05-0.49,0.14-0.7,0.27c-0.21,0.13-0.39,0.3-0.53,0.53c-0.14,0.22-0.21,0.51-0.21,0.87c0,0.24,0.05,0.45,0.15,0.63
			c0.1,0.18,0.24,0.35,0.41,0.49c0.17,0.14,0.37,0.28,0.59,0.4c0.22,0.12,0.46,0.24,0.71,0.36c0.31,0.14,0.63,0.29,0.96,0.45
			c0.33,0.15,0.64,0.34,0.92,0.56c0.28,0.22,0.51,0.49,0.7,0.81c0.19,0.32,0.28,0.71,0.28,1.19c0,0.58-0.11,1.07-0.32,1.46
			c-0.21,0.4-0.49,0.72-0.83,0.96c-0.34,0.24-0.72,0.42-1.14,0.52c-0.42,0.1-0.84,0.16-1.26,0.16c-0.43,0-0.85-0.07-1.25-0.2
			c-0.4-0.13-0.76-0.34-1.07-0.63c-0.31-0.29-0.55-0.66-0.73-1.12c-0.18-0.46-0.26-1.01-0.24-1.65h1.06
			C94.77,271.3,94.84,271.72,94.98,272.05z"/>
		<path fill="#567897" d="M104.23,263.91l0.56-3.09h1.07l-0.56,3.09h1.76l-0.17,1.05h-1.79l-1.21,6.55
			c-0.04,0.24-0.08,0.42-0.09,0.54c-0.02,0.13-0.03,0.27-0.03,0.42c0,0.19,0.04,0.35,0.13,0.5c0.09,0.15,0.23,0.22,0.44,0.22
			c0.42,0,0.84-0.04,1.26-0.12l-0.19,1.07c-0.18,0.03-0.36,0.05-0.54,0.06c-0.18,0.01-0.36,0.02-0.55,0.02c-0.2,0-0.4-0.02-0.6-0.05
			c-0.19-0.03-0.37-0.1-0.52-0.21c-0.15-0.11-0.28-0.25-0.37-0.45c-0.09-0.19-0.14-0.44-0.14-0.74c0-0.1,0.01-0.25,0.03-0.43
			c0.02-0.19,0.05-0.39,0.09-0.61l1.21-6.77h-1.59l0.21-1.05H104.23z"/>
		<path fill="#567897" d="M114.48,263.91l-1.89,10.21h-1.06l1.88-10.21H114.48z M115.21,260l-0.38,2h-1.07l0.38-2H115.21z"/>
		<path fill="#567897" d="M117.55,263.91l-0.31,1.86h0.03c0.33-0.61,0.77-1.12,1.32-1.53c0.55-0.42,1.16-0.62,1.82-0.62
			c0.39,0,0.74,0.05,1.07,0.16s0.61,0.27,0.84,0.48c0.24,0.22,0.42,0.5,0.55,0.85c0.13,0.35,0.2,0.77,0.2,1.26
			c0,0.28-0.05,0.68-0.14,1.21l-1.21,6.55h-1.07l1.23-6.59c0.03-0.16,0.06-0.33,0.09-0.5c0.02-0.18,0.03-0.35,0.03-0.53
			c0-0.34-0.05-0.63-0.15-0.86c-0.1-0.23-0.24-0.42-0.41-0.57c-0.17-0.14-0.37-0.25-0.59-0.32c-0.22-0.07-0.45-0.1-0.69-0.1
			c-0.39,0-0.76,0.1-1.13,0.3c-0.36,0.2-0.7,0.48-1.01,0.84s-0.57,0.81-0.8,1.33c-0.23,0.52-0.4,1.11-0.51,1.75l-0.97,5.24h-1.06
			l1.88-10.21H117.55z"/>
		<path fill="#567897" d="M124.43,275.73c0.13-0.13,0.23-0.28,0.32-0.44c0.08-0.17,0.16-0.35,0.21-0.55
			c0.06-0.21,0.11-0.41,0.15-0.6h-0.72l0.41-2.1h1.43l-0.56,2.75c-0.07,0.32-0.15,0.58-0.25,0.8c-0.1,0.22-0.22,0.41-0.37,0.56
			c-0.14,0.16-0.31,0.29-0.52,0.4c-0.2,0.11-0.44,0.2-0.72,0.28l0.14-0.79C124.15,275.96,124.31,275.86,124.43,275.73z"/>
		<path fill="#567897" d="M133.22,265.46c0.22-0.42,0.5-0.77,0.83-1.04c0.33-0.27,0.7-0.47,1.13-0.6c0.42-0.13,0.86-0.2,1.33-0.2
			c0.3,0,0.62,0.03,0.98,0.1c0.36,0.07,0.69,0.18,1,0.36c0.31,0.17,0.56,0.4,0.77,0.69s0.31,0.67,0.31,1.13
			c0,0.25-0.02,0.53-0.06,0.83c-0.04,0.3-0.09,0.61-0.14,0.92c-0.06,0.31-0.12,0.61-0.18,0.91c-0.06,0.3-0.12,0.56-0.16,0.78
			c-0.1,0.57-0.19,1.04-0.26,1.42c-0.07,0.38-0.13,0.69-0.18,0.94c-0.05,0.25-0.08,0.45-0.1,0.61c-0.02,0.16-0.03,0.32-0.03,0.47
			c0,0.18,0.06,0.3,0.19,0.35c0.13,0.05,0.25,0.07,0.38,0.07c0.08,0,0.15,0,0.21-0.01c0.06-0.01,0.13-0.02,0.21-0.03l-0.15,0.97
			c-0.28,0.07-0.58,0.1-0.89,0.1c-0.6,0-0.92-0.36-0.94-1.09c0-0.09,0-0.19,0.01-0.28c0.01-0.09,0.01-0.18,0.03-0.28l-0.03-0.04
			c-0.31,0.59-0.74,1.05-1.3,1.38c-0.56,0.32-1.14,0.49-1.76,0.49c-0.41,0-0.79-0.05-1.13-0.16c-0.34-0.11-0.63-0.27-0.88-0.49
			c-0.24-0.23-0.44-0.52-0.58-0.87s-0.21-0.78-0.21-1.29c0-0.54,0.08-1,0.25-1.37c0.16-0.37,0.39-0.67,0.67-0.91
			c0.28-0.24,0.61-0.43,0.97-0.56c0.36-0.14,0.75-0.25,1.14-0.33c0.58-0.11,1.11-0.16,1.58-0.15s0.88-0.04,1.22-0.15
			c0.35-0.11,0.62-0.3,0.79-0.57c0.18-0.28,0.26-0.75,0.26-1.42c0-0.3-0.06-0.55-0.18-0.74c-0.12-0.19-0.27-0.34-0.44-0.45
			c-0.18-0.1-0.38-0.18-0.6-0.22c-0.22-0.04-0.43-0.06-0.64-0.06c-0.34,0-0.67,0.04-0.97,0.12c-0.31,0.08-0.59,0.21-0.84,0.39
			c-0.25,0.18-0.46,0.42-0.62,0.71c-0.17,0.3-0.28,0.66-0.33,1.08h-1.07C132.86,266.38,133,265.88,133.22,265.46z M138.07,268.62
			c-0.09,0.12-0.22,0.21-0.38,0.29c-0.17,0.07-0.34,0.13-0.52,0.17c-0.18,0.04-0.37,0.07-0.55,0.08s-0.35,0.03-0.49,0.04
			c-0.33,0.03-0.7,0.06-1.1,0.11c-0.4,0.05-0.78,0.14-1.13,0.3c-0.35,0.15-0.65,0.38-0.89,0.67c-0.24,0.3-0.36,0.71-0.36,1.26
			c0,0.33,0.05,0.61,0.16,0.84c0.11,0.23,0.25,0.42,0.43,0.57c0.18,0.15,0.39,0.26,0.63,0.33c0.24,0.07,0.48,0.1,0.73,0.1
			c0.86,0,1.56-0.27,2.1-0.81c0.53-0.54,0.89-1.27,1.06-2.18l0.34-1.72L138.07,268.62z"/>
		<path fill="#567897" d="M143.27,263.91l-0.31,1.86H143c0.33-0.61,0.77-1.12,1.32-1.53c0.55-0.42,1.16-0.62,1.82-0.62
			c0.39,0,0.74,0.05,1.07,0.16s0.61,0.27,0.84,0.48c0.24,0.22,0.42,0.5,0.55,0.85c0.13,0.35,0.2,0.77,0.2,1.26
			c0,0.28-0.05,0.68-0.14,1.21l-1.21,6.55h-1.07l1.23-6.59c0.03-0.16,0.06-0.33,0.09-0.5c0.02-0.18,0.03-0.35,0.03-0.53
			c0-0.34-0.05-0.63-0.15-0.86c-0.1-0.23-0.24-0.42-0.41-0.57c-0.17-0.14-0.37-0.25-0.59-0.32c-0.22-0.07-0.45-0.1-0.69-0.1
			c-0.39,0-0.76,0.1-1.13,0.3c-0.36,0.2-0.7,0.48-1.01,0.84s-0.57,0.81-0.8,1.33c-0.23,0.52-0.4,1.11-0.51,1.75l-0.97,5.24h-1.06
			l1.88-10.21H143.27z"/>
		<path fill="#567897" d="M156.16,274.12l0.39-1.84h-0.03c-0.38,0.67-0.81,1.19-1.3,1.56c-0.49,0.37-1.13,0.55-1.9,0.55
			c-1.13,0-1.96-0.38-2.51-1.14c-0.55-0.76-0.83-1.76-0.83-3.02c0-0.78,0.11-1.56,0.33-2.36c0.22-0.79,0.54-1.5,0.96-2.14
			c0.42-0.63,0.93-1.15,1.52-1.54c0.59-0.4,1.26-0.59,1.99-0.59c0.69,0,1.3,0.17,1.81,0.5c0.51,0.34,0.86,0.91,1.06,1.71h0.03
			l1.06-5.84h1.07l-2.61,14.13H156.16z M155.06,272.83c0.48-0.36,0.88-0.82,1.2-1.38s0.57-1.18,0.74-1.86
			c0.17-0.68,0.26-1.34,0.26-1.97c0-0.91-0.21-1.63-0.64-2.16c-0.43-0.53-1.03-0.79-1.82-0.79c-0.61,0-1.16,0.18-1.63,0.54
			s-0.86,0.81-1.18,1.37c-0.31,0.55-0.55,1.16-0.71,1.83c-0.16,0.67-0.24,1.31-0.24,1.93c0,0.87,0.19,1.6,0.58,2.18
			c0.39,0.58,0.98,0.87,1.79,0.87C154.03,273.37,154.58,273.19,155.06,272.83z"/>
		<path fill="#567897" d="M165.98,263.91l1.04,8.81h0.03l4.13-8.81h1.18l-4.96,10.21h-1.16l-1.38-10.21H165.98z"/>
		<path fill="#567897" d="M173.65,265.46c0.22-0.42,0.5-0.77,0.83-1.04c0.33-0.27,0.7-0.47,1.13-0.6c0.42-0.13,0.86-0.2,1.33-0.2
			c0.3,0,0.62,0.03,0.98,0.1c0.36,0.07,0.69,0.18,1,0.36c0.31,0.17,0.56,0.4,0.77,0.69s0.31,0.67,0.31,1.13
			c0,0.25-0.02,0.53-0.06,0.83c-0.04,0.3-0.09,0.61-0.14,0.92c-0.06,0.31-0.12,0.61-0.18,0.91c-0.06,0.3-0.12,0.56-0.16,0.78
			c-0.1,0.57-0.19,1.04-0.26,1.42c-0.07,0.38-0.13,0.69-0.18,0.94c-0.05,0.25-0.08,0.45-0.1,0.61c-0.02,0.16-0.03,0.32-0.03,0.47
			c0,0.18,0.06,0.3,0.19,0.35c0.13,0.05,0.25,0.07,0.38,0.07c0.08,0,0.15,0,0.21-0.01c0.06-0.01,0.13-0.02,0.21-0.03l-0.15,0.97
			c-0.28,0.07-0.58,0.1-0.89,0.1c-0.6,0-0.92-0.36-0.94-1.09c0-0.09,0-0.19,0.01-0.28c0.01-0.09,0.01-0.18,0.03-0.28l-0.03-0.04
			c-0.31,0.59-0.74,1.05-1.3,1.38c-0.56,0.32-1.14,0.49-1.76,0.49c-0.41,0-0.79-0.05-1.13-0.16c-0.34-0.11-0.63-0.27-0.88-0.49
			c-0.24-0.23-0.44-0.52-0.58-0.87c-0.14-0.36-0.21-0.78-0.21-1.29c0-0.54,0.08-1,0.25-1.37c0.16-0.37,0.39-0.67,0.67-0.91
			c0.28-0.24,0.61-0.43,0.97-0.56c0.36-0.14,0.75-0.25,1.14-0.33c0.58-0.11,1.11-0.16,1.58-0.15c0.47,0.01,0.88-0.04,1.22-0.15
			c0.35-0.11,0.62-0.3,0.79-0.57c0.18-0.28,0.26-0.75,0.26-1.42c0-0.3-0.06-0.55-0.18-0.74c-0.12-0.19-0.27-0.34-0.44-0.45
			c-0.18-0.1-0.38-0.18-0.6-0.22c-0.22-0.04-0.43-0.06-0.64-0.06c-0.34,0-0.67,0.04-0.97,0.12c-0.31,0.08-0.59,0.21-0.84,0.39
			c-0.25,0.18-0.46,0.42-0.62,0.71c-0.17,0.3-0.28,0.66-0.33,1.08h-1.07C173.28,266.38,173.43,265.88,173.65,265.46z M178.5,268.62
			c-0.09,0.12-0.22,0.21-0.38,0.29s-0.34,0.13-0.52,0.17c-0.18,0.04-0.37,0.07-0.55,0.08s-0.35,0.03-0.49,0.04
			c-0.33,0.03-0.7,0.06-1.1,0.11c-0.4,0.05-0.78,0.14-1.13,0.3c-0.35,0.15-0.65,0.38-0.89,0.67c-0.24,0.3-0.36,0.71-0.36,1.26
			c0,0.33,0.05,0.61,0.16,0.84c0.11,0.23,0.25,0.42,0.43,0.57c0.18,0.15,0.39,0.26,0.63,0.33c0.24,0.07,0.48,0.1,0.73,0.1
			c0.86,0,1.56-0.27,2.1-0.81c0.53-0.54,0.89-1.27,1.06-2.18l0.34-1.72L178.5,268.62z"/>
		<path fill="#567897" d="M184.52,260l-2.63,14.13h-1.06l2.61-14.13H184.52z"/>
		<path fill="#567897" d="M190.02,274.12l0.31-1.86h-0.03c-0.33,0.61-0.77,1.11-1.32,1.52c-0.55,0.41-1.16,0.61-1.82,0.61
			c-0.39,0-0.74-0.05-1.06-0.15c-0.32-0.1-0.61-0.26-0.84-0.47c-0.24-0.22-0.42-0.5-0.55-0.85s-0.2-0.77-0.2-1.26
			c0-0.28,0.04-0.68,0.14-1.21l1.21-6.55h1.07l-1.23,6.59c-0.03,0.16-0.06,0.33-0.09,0.51c-0.02,0.18-0.03,0.35-0.03,0.52
			c0,0.33,0.05,0.61,0.15,0.85c0.1,0.24,0.24,0.43,0.41,0.57c0.17,0.14,0.37,0.25,0.59,0.32c0.22,0.07,0.45,0.1,0.69,0.1
			c0.4,0,0.78-0.1,1.13-0.3c0.36-0.2,0.69-0.48,0.99-0.84c0.3-0.36,0.57-0.8,0.79-1.33c0.23-0.52,0.4-1.1,0.53-1.75l0.97-5.25h1.07
			l-1.89,10.21H190.02z"/>
		<path fill="#567897" d="M194.63,270.15c0,0.46,0.05,0.89,0.15,1.29s0.26,0.74,0.47,1.02c0.21,0.28,0.48,0.51,0.8,0.67
			c0.32,0.17,0.7,0.25,1.13,0.25c0.72,0,1.32-0.23,1.82-0.7s0.85-1.08,1.06-1.83h1.07c-0.3,1.16-0.77,2.05-1.43,2.65
			c-0.66,0.61-1.52,0.91-2.57,0.91c-1.17,0-2.06-0.38-2.67-1.15c-0.61-0.76-0.91-1.82-0.91-3.17c0-0.82,0.1-1.61,0.32-2.38
			c0.21-0.77,0.52-1.46,0.93-2.07c0.41-0.61,0.91-1.09,1.5-1.46c0.59-0.37,1.26-0.55,2.01-0.55c0.53,0,1.01,0.1,1.41,0.29
			c0.41,0.19,0.76,0.46,1.05,0.81c0.29,0.35,0.51,0.77,0.66,1.26c0.15,0.49,0.22,1.03,0.22,1.62c0,0.29-0.01,0.58-0.02,0.87
			s-0.03,0.59-0.07,0.89h-6.89C194.65,269.59,194.63,269.86,194.63,270.15z M200.57,267.9c0.01-0.12,0.01-0.25,0.01-0.38
			c0-0.87-0.21-1.56-0.64-2.08c-0.43-0.52-1.01-0.77-1.76-0.77c-0.44,0-0.85,0.1-1.22,0.31c-0.37,0.21-0.7,0.48-0.99,0.81
			c-0.29,0.34-0.53,0.72-0.72,1.16c-0.19,0.44-0.34,0.89-0.43,1.37h5.75C200.56,268.16,200.56,268.03,200.57,267.9z"/>
		<path fill="#567897" d="M210.02,264.96l-1.74,9.16h-1.07l1.74-9.16h-1.53l0.2-1.05h1.52l0.27-1.48c0.14-0.75,0.38-1.35,0.73-1.78
			c0.35-0.43,0.89-0.65,1.62-0.65c0.19,0,0.38,0.01,0.56,0.02s0.36,0.05,0.55,0.12l-0.19,1.03c-0.11-0.03-0.22-0.05-0.33-0.08
			c-0.11-0.03-0.22-0.04-0.33-0.04c-0.5,0-0.86,0.11-1.07,0.35c-0.22,0.23-0.38,0.6-0.48,1.1l-0.26,1.42h1.74l-0.2,1.05H210.02z"/>
		<path fill="#567897" d="M214,263.91l-0.44,2.36h0.03c0.34-0.74,0.76-1.34,1.26-1.8c0.5-0.46,1.14-0.69,1.93-0.69h0.29
			c0.05,0,0.11,0,0.15,0c0.04,0,0.09,0.01,0.14,0.02l-0.24,1.25c-0.1,0-0.21,0-0.31-0.01c-0.1-0.01-0.2-0.01-0.31-0.01
			c-0.48,0.01-0.9,0.12-1.27,0.33c-0.37,0.21-0.69,0.49-0.96,0.84c-0.27,0.35-0.5,0.75-0.67,1.2c-0.18,0.45-0.31,0.91-0.4,1.38
			l-0.99,5.34h-1.06l1.88-10.21H214z"/>
		<path fill="#567897" d="M223.25,263.88c0.43,0.18,0.79,0.44,1.1,0.78c0.31,0.34,0.55,0.76,0.72,1.26c0.17,0.5,0.26,1.06,0.26,1.69
			c0,0.86-0.1,1.7-0.31,2.51c-0.21,0.82-0.51,1.54-0.91,2.18c-0.4,0.63-0.91,1.14-1.52,1.52c-0.61,0.38-1.32,0.57-2.14,0.57
			c-1.14,0-2.01-0.38-2.61-1.15c-0.6-0.76-0.9-1.79-0.9-3.09c0-0.83,0.11-1.64,0.32-2.43c0.22-0.79,0.53-1.49,0.96-2.1
			c0.42-0.61,0.94-1.09,1.54-1.46c0.61-0.37,1.3-0.55,2.09-0.55C222.35,263.62,222.82,263.71,223.25,263.88z M222.21,272.85
			c0.45-0.35,0.82-0.79,1.13-1.33c0.3-0.54,0.53-1.13,0.68-1.78c0.15-0.65,0.23-1.27,0.23-1.86c0-0.95-0.22-1.72-0.65-2.32
			c-0.43-0.59-1.08-0.89-1.94-0.89c-0.59,0-1.11,0.17-1.57,0.51c-0.45,0.34-0.84,0.76-1.14,1.29c-0.31,0.52-0.54,1.1-0.7,1.74
			c-0.16,0.64-0.24,1.26-0.24,1.85c0,0.99,0.22,1.79,0.65,2.4c0.43,0.61,1.1,0.92,1.99,0.92
			C221.24,273.37,221.76,273.2,222.21,272.85z"/>
		<path fill="#567897" d="M228.86,263.91l-0.34,1.78l0.03,0.04c0.32-0.59,0.75-1.09,1.3-1.5c0.55-0.41,1.15-0.61,1.81-0.61
			c0.62,0,1.11,0.18,1.48,0.54s0.59,0.91,0.65,1.63h0.03c0.34-0.63,0.78-1.15,1.3-1.56c0.53-0.41,1.12-0.61,1.78-0.61
			c0.85,0,1.47,0.25,1.86,0.75c0.39,0.5,0.58,1.15,0.58,1.94c0,0.19-0.01,0.37-0.03,0.56c-0.02,0.19-0.05,0.39-0.08,0.6l-1.23,6.65
			h-1.07l1.25-6.69c0.07-0.36,0.1-0.7,0.1-1.03c0-0.5-0.13-0.92-0.4-1.25c-0.27-0.33-0.69-0.5-1.27-0.5c-0.47,0-0.87,0.13-1.22,0.38
			c-0.35,0.25-0.65,0.59-0.9,1.02c-0.26,0.43-0.47,0.93-0.64,1.5c-0.17,0.57-0.32,1.19-0.44,1.85l-0.87,4.71h-1.07l1.23-6.65
			c0.07-0.34,0.1-0.67,0.1-0.99c0-0.5-0.12-0.93-0.35-1.29s-0.61-0.54-1.13-0.54c-0.39,0-0.76,0.11-1.11,0.34
			c-0.35,0.23-0.67,0.53-0.95,0.91c-0.29,0.38-0.53,0.84-0.74,1.36c-0.21,0.52-0.37,1.08-0.48,1.67l-0.96,5.18H226l1.88-10.21
			H228.86z"/>
		<path fill="#567897" d="M240.8,275.73c0.12-0.13,0.23-0.28,0.32-0.44c0.09-0.17,0.16-0.35,0.21-0.55c0.06-0.21,0.11-0.41,0.15-0.6
			h-0.72l0.41-2.1h1.43l-0.56,2.75c-0.07,0.32-0.16,0.58-0.26,0.8c-0.1,0.22-0.23,0.41-0.37,0.56c-0.14,0.16-0.32,0.29-0.52,0.4
			s-0.44,0.2-0.71,0.28l0.13-0.79C240.51,275.96,240.67,275.86,240.8,275.73z"/>
		<path fill="#567897" d="M252.63,263.91l-1.89,10.21h-1.06l1.88-10.21H252.63z M253.37,260l-0.38,2h-1.07l0.38-2H253.37z"/>
		<path fill="#567897" d="M255.7,263.91l-0.31,1.86h0.04c0.33-0.61,0.77-1.12,1.32-1.53c0.55-0.42,1.16-0.62,1.82-0.62
			c0.39,0,0.74,0.05,1.07,0.16c0.32,0.11,0.6,0.27,0.84,0.48c0.24,0.22,0.42,0.5,0.55,0.85c0.13,0.35,0.2,0.77,0.2,1.26
			c0,0.28-0.05,0.68-0.14,1.21l-1.21,6.55h-1.07l1.23-6.59c0.04-0.16,0.06-0.33,0.09-0.5c0.02-0.18,0.03-0.35,0.03-0.53
			c0-0.34-0.05-0.63-0.15-0.86c-0.1-0.23-0.24-0.42-0.41-0.57c-0.17-0.14-0.37-0.25-0.59-0.32c-0.22-0.07-0.45-0.1-0.69-0.1
			c-0.39,0-0.76,0.1-1.13,0.3c-0.36,0.2-0.7,0.48-1.01,0.84c-0.31,0.36-0.57,0.81-0.8,1.33c-0.23,0.52-0.4,1.11-0.51,1.75
			l-0.97,5.24h-1.06l1.88-10.21H255.7z"/>
		<path fill="#567897" d="M265.28,264.96l-1.74,9.16h-1.07l1.74-9.16h-1.53l0.2-1.05h1.52l0.27-1.48c0.14-0.75,0.38-1.35,0.73-1.78
			c0.35-0.43,0.89-0.65,1.62-0.65c0.19,0,0.38,0.01,0.56,0.02c0.18,0.01,0.36,0.05,0.55,0.12l-0.19,1.03
			c-0.11-0.03-0.22-0.05-0.33-0.08c-0.11-0.03-0.22-0.04-0.33-0.04c-0.5,0-0.86,0.11-1.07,0.35c-0.22,0.23-0.38,0.6-0.48,1.1
			l-0.26,1.42h1.74l-0.2,1.05H265.28z"/>
		<path fill="#567897" d="M273.13,263.88c0.43,0.18,0.79,0.44,1.1,0.78c0.31,0.34,0.55,0.76,0.72,1.26c0.17,0.5,0.26,1.06,0.26,1.69
			c0,0.86-0.1,1.7-0.31,2.51c-0.21,0.82-0.51,1.54-0.91,2.18c-0.4,0.63-0.91,1.14-1.52,1.52c-0.61,0.38-1.32,0.57-2.14,0.57
			c-1.14,0-2.01-0.38-2.61-1.15c-0.6-0.76-0.9-1.79-0.9-3.09c0-0.83,0.11-1.64,0.32-2.43c0.22-0.79,0.54-1.49,0.96-2.1
			c0.42-0.61,0.94-1.09,1.54-1.46c0.61-0.37,1.3-0.55,2.09-0.55C272.24,263.62,272.71,263.71,273.13,263.88z M272.09,272.85
			c0.45-0.35,0.83-0.79,1.13-1.33s0.53-1.13,0.68-1.78c0.15-0.65,0.23-1.27,0.23-1.86c0-0.95-0.22-1.72-0.65-2.32
			c-0.43-0.59-1.08-0.89-1.94-0.89c-0.59,0-1.11,0.17-1.57,0.51c-0.45,0.34-0.84,0.76-1.14,1.29c-0.31,0.52-0.54,1.1-0.7,1.74
			c-0.16,0.64-0.24,1.26-0.24,1.85c0,0.99,0.22,1.79,0.65,2.4c0.43,0.61,1.1,0.92,1.99,0.92
			C271.12,273.37,271.64,273.2,272.09,272.85z"/>
		<path fill="#567897" d="M278.73,263.91l-0.44,2.36h0.03c0.34-0.74,0.76-1.34,1.26-1.8c0.5-0.46,1.14-0.69,1.93-0.69h0.29
			c0.06,0,0.11,0,0.15,0c0.04,0,0.09,0.01,0.14,0.02l-0.24,1.25c-0.1,0-0.21,0-0.31-0.01c-0.1-0.01-0.21-0.01-0.31-0.01
			c-0.48,0.01-0.9,0.12-1.27,0.33c-0.37,0.21-0.69,0.49-0.96,0.84c-0.27,0.35-0.5,0.75-0.67,1.2c-0.18,0.45-0.31,0.91-0.4,1.38
			l-0.99,5.34h-1.06l1.88-10.21H278.73z"/>
		<path fill="#567897" d="M284.12,263.91l-0.34,1.78l0.03,0.04c0.32-0.59,0.75-1.09,1.3-1.5c0.55-0.41,1.15-0.61,1.81-0.61
			c0.62,0,1.11,0.18,1.48,0.54s0.59,0.91,0.65,1.63h0.03c0.34-0.63,0.78-1.15,1.3-1.56c0.53-0.41,1.12-0.61,1.78-0.61
			c0.85,0,1.47,0.25,1.86,0.75c0.39,0.5,0.58,1.15,0.58,1.94c0,0.19-0.01,0.37-0.03,0.56c-0.02,0.19-0.05,0.39-0.08,0.6l-1.23,6.65
			h-1.07l1.25-6.69c0.07-0.36,0.1-0.7,0.1-1.03c0-0.5-0.13-0.92-0.4-1.25c-0.27-0.33-0.69-0.5-1.27-0.5c-0.47,0-0.87,0.13-1.22,0.38
			c-0.35,0.25-0.65,0.59-0.9,1.02c-0.26,0.43-0.47,0.93-0.64,1.5c-0.17,0.57-0.32,1.19-0.44,1.85l-0.87,4.71h-1.07l1.23-6.65
			c0.07-0.34,0.1-0.67,0.1-0.99c0-0.5-0.12-0.93-0.35-1.29s-0.61-0.54-1.13-0.54c-0.39,0-0.76,0.11-1.11,0.34
			c-0.35,0.23-0.67,0.53-0.95,0.91c-0.29,0.38-0.53,0.84-0.74,1.36c-0.21,0.52-0.37,1.08-0.48,1.67l-0.96,5.18h-1.06l1.88-10.21
			H284.12z"/>
		<path fill="#567897" d="M297.12,265.46c0.22-0.42,0.5-0.77,0.83-1.04s0.71-0.47,1.12-0.6c0.42-0.13,0.86-0.2,1.33-0.2
			c0.29,0,0.62,0.03,0.98,0.1c0.36,0.07,0.69,0.18,1,0.36c0.31,0.17,0.56,0.4,0.77,0.69c0.21,0.29,0.31,0.67,0.31,1.13
			c0,0.25-0.02,0.53-0.06,0.83c-0.04,0.3-0.09,0.61-0.15,0.92c-0.06,0.31-0.12,0.61-0.18,0.91c-0.06,0.3-0.12,0.56-0.16,0.78
			c-0.1,0.57-0.19,1.04-0.26,1.42c-0.07,0.38-0.13,0.69-0.18,0.94c-0.04,0.25-0.08,0.45-0.1,0.61c-0.02,0.16-0.03,0.32-0.03,0.47
			c0,0.18,0.06,0.3,0.19,0.35c0.12,0.05,0.25,0.07,0.38,0.07c0.08,0,0.15,0,0.21-0.01c0.06-0.01,0.13-0.02,0.21-0.03l-0.15,0.97
			c-0.28,0.07-0.58,0.1-0.89,0.1c-0.6,0-0.91-0.36-0.94-1.09c0-0.09,0-0.19,0.01-0.28c0.01-0.09,0.01-0.18,0.03-0.28l-0.03-0.04
			c-0.31,0.59-0.74,1.05-1.3,1.38c-0.56,0.32-1.14,0.49-1.75,0.49c-0.41,0-0.78-0.05-1.12-0.16c-0.34-0.11-0.63-0.27-0.88-0.49
			c-0.25-0.23-0.44-0.52-0.58-0.87c-0.14-0.36-0.21-0.78-0.21-1.29c0-0.54,0.08-1,0.25-1.37c0.16-0.37,0.39-0.67,0.67-0.91
			c0.28-0.24,0.61-0.43,0.97-0.56c0.36-0.14,0.74-0.25,1.14-0.33c0.58-0.11,1.1-0.16,1.58-0.15c0.47,0.01,0.88-0.04,1.22-0.15
			c0.35-0.11,0.62-0.3,0.79-0.57c0.17-0.28,0.26-0.75,0.26-1.42c0-0.3-0.06-0.55-0.18-0.74s-0.27-0.34-0.44-0.45
			c-0.18-0.1-0.37-0.18-0.6-0.22c-0.22-0.04-0.43-0.06-0.64-0.06c-0.34,0-0.67,0.04-0.97,0.12c-0.31,0.08-0.58,0.21-0.84,0.39
			c-0.25,0.18-0.46,0.42-0.62,0.71c-0.16,0.3-0.28,0.66-0.33,1.08h-1.08C296.76,266.38,296.9,265.88,297.12,265.46z M301.97,268.62
			c-0.09,0.12-0.22,0.21-0.38,0.29c-0.17,0.07-0.34,0.13-0.52,0.17c-0.18,0.04-0.37,0.07-0.55,0.08c-0.19,0.01-0.35,0.03-0.49,0.04
			c-0.33,0.03-0.7,0.06-1.1,0.11c-0.4,0.05-0.78,0.14-1.13,0.3c-0.35,0.15-0.65,0.38-0.89,0.67c-0.24,0.3-0.36,0.71-0.36,1.26
			c0,0.33,0.05,0.61,0.16,0.84c0.11,0.23,0.25,0.42,0.43,0.57c0.18,0.15,0.39,0.26,0.63,0.33c0.24,0.07,0.48,0.1,0.73,0.1
			c0.86,0,1.56-0.27,2.1-0.81c0.53-0.54,0.89-1.27,1.06-2.18l0.34-1.72L301.97,268.62z"/>
		<path fill="#567897" d="M306.8,263.91l0.56-3.09h1.07l-0.56,3.09h1.76l-0.17,1.05h-1.79l-1.21,6.55
			c-0.04,0.24-0.08,0.42-0.09,0.54s-0.03,0.27-0.03,0.42c0,0.19,0.04,0.35,0.13,0.5c0.08,0.15,0.23,0.22,0.43,0.22
			c0.42,0,0.84-0.04,1.26-0.12l-0.19,1.07c-0.18,0.03-0.36,0.05-0.55,0.06c-0.18,0.01-0.36,0.02-0.55,0.02
			c-0.21,0-0.4-0.02-0.6-0.05c-0.19-0.03-0.37-0.1-0.52-0.21c-0.15-0.11-0.28-0.25-0.37-0.45c-0.09-0.19-0.14-0.44-0.14-0.74
			c0-0.1,0.01-0.25,0.03-0.43c0.02-0.19,0.05-0.39,0.09-0.61l1.21-6.77h-1.59l0.2-1.05H306.8z"/>
		<path fill="#567897" d="M312.31,263.91l-1.89,10.21h-1.06l1.88-10.21H312.31z M313.04,260l-0.38,2h-1.07l0.38-2H313.04z"/>
		<path fill="#567897" d="M319.24,263.88c0.43,0.18,0.79,0.44,1.1,0.78c0.31,0.34,0.55,0.76,0.72,1.26c0.17,0.5,0.26,1.06,0.26,1.69
			c0,0.86-0.1,1.7-0.31,2.51c-0.21,0.82-0.51,1.54-0.91,2.18c-0.4,0.63-0.91,1.14-1.52,1.52c-0.61,0.38-1.32,0.57-2.14,0.57
			c-1.14,0-2.01-0.38-2.61-1.15c-0.6-0.76-0.9-1.79-0.9-3.09c0-0.83,0.11-1.64,0.32-2.43c0.22-0.79,0.54-1.49,0.96-2.1
			c0.42-0.61,0.94-1.09,1.54-1.46c0.61-0.37,1.3-0.55,2.09-0.55C318.34,263.62,318.81,263.71,319.24,263.88z M318.2,272.85
			c0.45-0.35,0.83-0.79,1.13-1.33s0.53-1.13,0.68-1.78c0.15-0.65,0.23-1.27,0.23-1.86c0-0.95-0.22-1.72-0.65-2.32
			c-0.43-0.59-1.08-0.89-1.94-0.89c-0.59,0-1.11,0.17-1.57,0.51c-0.45,0.34-0.84,0.76-1.14,1.29c-0.31,0.52-0.54,1.1-0.7,1.74
			c-0.16,0.64-0.24,1.26-0.24,1.85c0,0.99,0.22,1.79,0.65,2.4c0.43,0.61,1.1,0.92,1.99,0.92
			C317.23,273.37,317.75,273.2,318.2,272.85z"/>
		<path fill="#567897" d="M324.85,263.91l-0.31,1.86h0.04c0.33-0.61,0.77-1.12,1.32-1.53c0.55-0.42,1.16-0.62,1.82-0.62
			c0.39,0,0.74,0.05,1.07,0.16c0.32,0.11,0.6,0.27,0.84,0.48c0.24,0.22,0.42,0.5,0.55,0.85c0.13,0.35,0.2,0.77,0.2,1.26
			c0,0.28-0.05,0.68-0.14,1.21l-1.21,6.55h-1.07l1.23-6.59c0.04-0.16,0.06-0.33,0.09-0.5c0.02-0.18,0.03-0.35,0.03-0.53
			c0-0.34-0.05-0.63-0.15-0.86c-0.1-0.23-0.24-0.42-0.41-0.57c-0.17-0.14-0.37-0.25-0.59-0.32c-0.22-0.07-0.45-0.1-0.69-0.1
			c-0.39,0-0.76,0.1-1.13,0.3c-0.36,0.2-0.7,0.48-1.01,0.84c-0.31,0.36-0.57,0.81-0.8,1.33c-0.23,0.52-0.4,1.11-0.51,1.75
			l-0.97,5.24h-1.06l1.88-10.21H324.85z"/>
		<path fill="#567897" d="M339.12,272.05c0.14,0.33,0.33,0.59,0.56,0.79s0.5,0.34,0.8,0.42c0.3,0.08,0.61,0.12,0.91,0.12
			c0.24,0,0.49-0.04,0.75-0.11c0.26-0.07,0.5-0.18,0.72-0.33c0.22-0.15,0.39-0.35,0.54-0.58c0.14-0.24,0.21-0.52,0.21-0.85
			c0-0.34-0.07-0.63-0.21-0.85c-0.14-0.22-0.32-0.42-0.54-0.58c-0.22-0.17-0.48-0.31-0.76-0.44c-0.28-0.12-0.57-0.25-0.85-0.38
			s-0.57-0.27-0.85-0.43c-0.29-0.15-0.54-0.34-0.76-0.55c-0.22-0.22-0.4-0.47-0.54-0.77c-0.14-0.3-0.21-0.66-0.21-1.08
			c0-0.5,0.1-0.93,0.31-1.28c0.21-0.35,0.47-0.64,0.79-0.86c0.32-0.23,0.67-0.39,1.06-0.5c0.39-0.11,0.75-0.16,1.11-0.16
			c0.47,0,0.89,0.06,1.28,0.18c0.39,0.12,0.72,0.31,1,0.57s0.49,0.6,0.65,1.02c0.15,0.42,0.22,0.92,0.21,1.51h-1.07
			c0.02-0.4-0.02-0.73-0.12-1.01c-0.1-0.28-0.25-0.51-0.43-0.69c-0.19-0.19-0.41-0.32-0.67-0.41c-0.26-0.08-0.54-0.13-0.84-0.13
			c-0.24,0-0.49,0.03-0.74,0.08c-0.26,0.05-0.49,0.14-0.7,0.27c-0.21,0.13-0.39,0.3-0.53,0.53c-0.14,0.22-0.21,0.51-0.21,0.87
			c0,0.24,0.05,0.45,0.15,0.63c0.1,0.18,0.24,0.35,0.41,0.49c0.17,0.14,0.37,0.28,0.59,0.4c0.22,0.12,0.46,0.24,0.71,0.36
			c0.31,0.14,0.63,0.29,0.96,0.45c0.33,0.15,0.64,0.34,0.92,0.56s0.51,0.49,0.7,0.81c0.19,0.32,0.28,0.71,0.28,1.19
			c0,0.58-0.1,1.07-0.32,1.46s-0.49,0.72-0.83,0.96c-0.34,0.24-0.72,0.42-1.14,0.52c-0.42,0.1-0.84,0.16-1.26,0.16
			c-0.43,0-0.85-0.07-1.25-0.2c-0.4-0.13-0.76-0.34-1.06-0.63c-0.31-0.29-0.55-0.66-0.73-1.12c-0.18-0.46-0.26-1.01-0.24-1.65h1.06
			C338.9,271.3,338.97,271.72,339.12,272.05z"/>
		<path fill="#567897" d="M346.23,276.83c0.33,0,0.61-0.12,0.84-0.36c0.23-0.24,0.41-0.49,0.55-0.75l0.8-1.6l-1.62-10.21h1.13
			l1.26,8.67h0.03l4.06-8.67h1.16l-6.26,12.61c-0.46,0.91-1.17,1.37-2.13,1.37c-0.15,0-0.3-0.01-0.45-0.04
			c-0.15-0.03-0.31-0.05-0.47-0.06l0.2-1.01C345.64,276.82,345.94,276.83,346.23,276.83z"/>
		<path fill="#567897" d="M355.21,272.05c0.14,0.33,0.33,0.59,0.56,0.79s0.5,0.34,0.8,0.42c0.3,0.08,0.61,0.12,0.91,0.12
			c0.24,0,0.49-0.04,0.75-0.11c0.26-0.07,0.5-0.18,0.72-0.33c0.22-0.15,0.39-0.35,0.54-0.58c0.14-0.24,0.21-0.52,0.21-0.85
			c0-0.34-0.07-0.63-0.21-0.85c-0.14-0.22-0.32-0.42-0.54-0.58c-0.22-0.17-0.48-0.31-0.76-0.44c-0.28-0.12-0.57-0.25-0.85-0.38
			s-0.57-0.27-0.85-0.43c-0.29-0.15-0.54-0.34-0.76-0.55c-0.22-0.22-0.4-0.47-0.54-0.77c-0.14-0.3-0.2-0.66-0.2-1.08
			c0-0.5,0.1-0.93,0.31-1.28c0.21-0.35,0.47-0.64,0.79-0.86c0.32-0.23,0.67-0.39,1.06-0.5c0.39-0.11,0.75-0.16,1.11-0.16
			c0.47,0,0.89,0.06,1.28,0.18c0.39,0.12,0.72,0.31,1,0.57c0.28,0.26,0.49,0.6,0.65,1.02c0.15,0.42,0.22,0.92,0.21,1.51h-1.07
			c0.02-0.4-0.02-0.73-0.12-1.01c-0.1-0.28-0.25-0.51-0.43-0.69c-0.19-0.19-0.41-0.32-0.67-0.41c-0.26-0.08-0.54-0.13-0.84-0.13
			c-0.24,0-0.49,0.03-0.74,0.08c-0.26,0.05-0.49,0.14-0.7,0.27c-0.21,0.13-0.39,0.3-0.53,0.53c-0.14,0.22-0.21,0.51-0.21,0.87
			c0,0.24,0.05,0.45,0.15,0.63c0.1,0.18,0.24,0.35,0.41,0.49c0.17,0.14,0.37,0.28,0.59,0.4c0.22,0.12,0.46,0.24,0.71,0.36
			c0.31,0.14,0.63,0.29,0.96,0.45c0.33,0.15,0.64,0.34,0.92,0.56s0.51,0.49,0.7,0.81c0.19,0.32,0.28,0.71,0.28,1.19
			c0,0.58-0.1,1.07-0.32,1.46s-0.49,0.72-0.83,0.96c-0.34,0.24-0.72,0.42-1.14,0.52c-0.42,0.1-0.84,0.16-1.26,0.16
			c-0.43,0-0.85-0.07-1.25-0.2c-0.4-0.13-0.76-0.34-1.06-0.63c-0.31-0.29-0.55-0.66-0.73-1.12c-0.18-0.46-0.26-1.01-0.24-1.65H355
			C355,271.3,355.07,271.72,355.21,272.05z"/>
		<path fill="#567897" d="M364.46,263.91l0.56-3.09h1.07l-0.56,3.09h1.76l-0.17,1.05h-1.79l-1.21,6.55
			c-0.05,0.24-0.08,0.42-0.09,0.54s-0.03,0.27-0.03,0.42c0,0.19,0.04,0.35,0.13,0.5c0.08,0.15,0.23,0.22,0.44,0.22
			c0.42,0,0.84-0.04,1.26-0.12l-0.19,1.07c-0.18,0.03-0.36,0.05-0.55,0.06c-0.18,0.01-0.36,0.02-0.55,0.02c-0.2,0-0.4-0.02-0.6-0.05
			c-0.19-0.03-0.37-0.1-0.52-0.21c-0.15-0.11-0.28-0.25-0.37-0.45c-0.09-0.19-0.14-0.44-0.14-0.74c0-0.1,0.01-0.25,0.03-0.43
			c0.02-0.19,0.05-0.39,0.09-0.61l1.21-6.77h-1.59l0.2-1.05H364.46z"/>
		<path fill="#567897" d="M368.5,270.15c0,0.46,0.05,0.89,0.15,1.29c0.1,0.4,0.26,0.74,0.47,1.02c0.21,0.28,0.48,0.51,0.8,0.67
			c0.33,0.17,0.7,0.25,1.13,0.25c0.71,0,1.32-0.23,1.82-0.7c0.5-0.47,0.85-1.08,1.06-1.83h1.07c-0.3,1.16-0.77,2.05-1.43,2.65
			c-0.66,0.61-1.52,0.91-2.57,0.91c-1.17,0-2.06-0.38-2.67-1.15c-0.61-0.76-0.91-1.82-0.91-3.17c0-0.82,0.11-1.61,0.32-2.38
			c0.21-0.77,0.52-1.46,0.93-2.07c0.41-0.61,0.91-1.09,1.5-1.46c0.59-0.37,1.26-0.55,2.01-0.55c0.54,0,1.01,0.1,1.42,0.29
			c0.41,0.19,0.76,0.46,1.05,0.81c0.29,0.35,0.51,0.77,0.66,1.26c0.15,0.49,0.22,1.03,0.22,1.62c0,0.29-0.01,0.58-0.02,0.87
			c-0.01,0.29-0.03,0.59-0.07,0.89h-6.89C368.52,269.59,368.5,269.86,368.5,270.15z M374.44,267.9c0.01-0.12,0.01-0.25,0.01-0.38
			c0-0.87-0.21-1.56-0.64-2.08c-0.43-0.52-1.01-0.77-1.76-0.77c-0.44,0-0.85,0.1-1.22,0.31c-0.37,0.21-0.7,0.48-0.99,0.81
			c-0.29,0.34-0.53,0.72-0.72,1.16c-0.19,0.44-0.33,0.89-0.42,1.37h5.75C374.43,268.16,374.44,268.03,374.44,267.9z"/>
		<path fill="#567897" d="M378.73,263.91l-0.34,1.78l0.03,0.04c0.32-0.59,0.75-1.09,1.3-1.5c0.55-0.41,1.15-0.61,1.81-0.61
			c0.62,0,1.11,0.18,1.49,0.54c0.38,0.36,0.59,0.91,0.65,1.63h0.03c0.34-0.63,0.78-1.15,1.3-1.56c0.53-0.41,1.12-0.61,1.78-0.61
			c0.85,0,1.47,0.25,1.86,0.75s0.58,1.15,0.58,1.94c0,0.19-0.01,0.37-0.03,0.56c-0.02,0.19-0.05,0.39-0.09,0.6l-1.23,6.65h-1.07
			l1.25-6.69c0.07-0.36,0.1-0.7,0.1-1.03c0-0.5-0.13-0.92-0.4-1.25c-0.27-0.33-0.69-0.5-1.27-0.5c-0.46,0-0.87,0.13-1.22,0.38
			c-0.35,0.25-0.65,0.59-0.9,1.02s-0.47,0.93-0.64,1.5c-0.17,0.57-0.32,1.19-0.44,1.85l-0.87,4.71h-1.07l1.23-6.65
			c0.07-0.34,0.1-0.67,0.1-0.99c0-0.5-0.12-0.93-0.35-1.29s-0.61-0.54-1.13-0.54c-0.39,0-0.75,0.11-1.11,0.34
			c-0.35,0.23-0.67,0.53-0.96,0.91c-0.29,0.38-0.53,0.84-0.74,1.36c-0.21,0.52-0.37,1.08-0.49,1.67l-0.95,5.18h-1.06l1.88-10.21
			H378.73z"/>
		<path fill="#567897" d="M391.51,272.05c0.14,0.33,0.33,0.59,0.56,0.79s0.5,0.34,0.8,0.42s0.61,0.12,0.91,0.12
			c0.24,0,0.49-0.04,0.75-0.11c0.26-0.07,0.5-0.18,0.72-0.33c0.21-0.15,0.39-0.35,0.54-0.58c0.14-0.24,0.21-0.52,0.21-0.85
			c0-0.34-0.07-0.63-0.21-0.85c-0.14-0.22-0.32-0.42-0.54-0.58c-0.22-0.17-0.47-0.31-0.76-0.44c-0.28-0.12-0.57-0.25-0.85-0.38
			s-0.57-0.27-0.85-0.43s-0.54-0.34-0.76-0.55c-0.22-0.22-0.4-0.47-0.54-0.77c-0.14-0.3-0.2-0.66-0.2-1.08c0-0.5,0.1-0.93,0.31-1.28
			c0.21-0.35,0.47-0.64,0.79-0.86c0.32-0.23,0.67-0.39,1.06-0.5c0.39-0.11,0.76-0.16,1.11-0.16c0.47,0,0.89,0.06,1.28,0.18
			c0.39,0.12,0.72,0.31,1,0.57c0.28,0.26,0.5,0.6,0.65,1.02c0.15,0.42,0.22,0.92,0.21,1.51h-1.07c0.02-0.4-0.02-0.73-0.12-1.01
			c-0.1-0.28-0.25-0.51-0.43-0.69c-0.19-0.19-0.41-0.32-0.67-0.41c-0.26-0.08-0.54-0.13-0.84-0.13c-0.24,0-0.49,0.03-0.74,0.08
			c-0.26,0.05-0.49,0.14-0.7,0.27c-0.21,0.13-0.39,0.3-0.53,0.53c-0.14,0.22-0.21,0.51-0.21,0.87c0,0.24,0.05,0.45,0.15,0.63
			c0.1,0.18,0.24,0.35,0.41,0.49c0.17,0.14,0.37,0.28,0.59,0.4c0.22,0.12,0.46,0.24,0.71,0.36c0.31,0.14,0.63,0.29,0.96,0.45
			c0.33,0.15,0.64,0.34,0.92,0.56c0.28,0.22,0.51,0.49,0.7,0.81c0.19,0.32,0.28,0.71,0.28,1.19c0,0.58-0.1,1.07-0.32,1.46
			s-0.49,0.72-0.83,0.96c-0.34,0.24-0.72,0.42-1.14,0.52c-0.42,0.1-0.84,0.16-1.26,0.16c-0.43,0-0.85-0.07-1.25-0.2
			c-0.4-0.13-0.76-0.34-1.06-0.63c-0.31-0.29-0.55-0.66-0.73-1.12c-0.18-0.46-0.26-1.01-0.24-1.65h1.06
			C391.29,271.3,391.37,271.72,391.51,272.05z"/>
	</g>
</g>
<polygon fill="#FFFFFF" points="127.1,203.43 125.68,209.21 144.6,206.61 "/>
<polygon fill="#7E9FB7" points="118.88,201.93 111.53,198.09 115.21,154.12 102.44,195.34 97.43,200.83 34.33,205.78 89.1,209.63 
	97.43,215.13 93.3,259.1 104.75,217.87 114.68,210.73 125.68,209.21 127.1,203.43 "/>
</svg>
