<?xml version="1.0" encoding="utf-8"?>
<!-- Generator: Adobe Illustrator 18.1.1, SVG Export Plug-In . SVG Version: 6.00 Build 0)  -->
<!DOCTYPE svg PUBLIC "-//W3C//DTD SVG 1.1//EN" "http://www.w3.org/Graphics/SVG/1.1/DTD/svg11.dtd">
<svg version="1.1" id="Layer_1" xmlns="http://www.w3.org/2000/svg" xmlns:xlink="http://www.w3.org/1999/xlink" x="0px" y="0px"
	 viewBox="0 0 216 216" enable-background="new 0 0 216 216" xml:space="preserve">
<path fill="#567897" d="M38.1,122.8c0.9-0.6,1.8-1.1,2.7-1.6c-0.3-0.7-0.5-1.4-0.8-2.1c-0.9-2.8-1.4-5.6-1.2-8.5
	c0.2-2.9,0.9-5.6,2-8.3c1.5-3.7,3.5-7.1,5.8-10.4c0.1-0.2,0.2-0.3,0.4-0.6c-0.7-0.4-1.4-0.9-2.1-1.2c-2-1.1-4.2-1.5-6.4-1.7
	c-1.5-0.1-3-0.1-4.5,0.1c-0.1,0-0.2,0-0.4,0c0.3-0.3,0.5-0.6,0.7-0.8c0.6-0.7,1.2-1.3,1.8-2c0.1-0.1,0.2-0.2,0.4-0.2
	c4.1-0.2,7.9,0.7,11.3,3.1c3.5,2.5,5.5,5.9,6.3,10c0.9,4.6,0.2,9-1.8,13.2c-3.4,7.1-8.8,12-16.3,14.5c-3.3,1.1-6.7,1.5-10.2,0.9
	c-0.7-0.1-1.4-0.3-2.1-0.5c-0.1,0-0.2-0.1-0.3-0.3c-0.1-3.6,0.3-7.1,1.7-10.4c0.6-1.4,1.4-2.8,2.6-3.9c1.1-1,2.3-1.6,3.7-1.4
	c1.3,0.2,2.2,0.8,3.1,1.8c1.3,1.5,2.1,3.2,2.7,5c0.5,1.6,0.8,3.2,0.9,4.9C38.1,122.5,38.1,122.6,38.1,122.8z"/>
<path fill="#7DA1BC" d="M21.1,129.4c-0.6-0.3-1.1-0.5-1.6-0.8c-4-2.3-6.5-5.8-7.4-10.3c-0.8-4.1-0.2-8.1,1.4-12
	c3.5-8,9.5-13.4,17.9-15.8c3.8-1.1,7.6-1.1,11.4,0.1c0.4,0.1,0.8,0.3,1.3,0.5c-0.6,1.2-1.1,2.4-1.7,3.6c-1,2-2.2,3.9-3.9,5.5
	c-1.1,1.1-2.4,2.1-3.9,2.6c-0.4,0.1-0.9,0.2-1.4,0.2c-1.1-0.1-1.8-0.8-1.9-2c-0.1-1.2,0.2-2.4,0.6-3.5c0.7-2,1.9-3.7,3.3-5.3
	c0.1-0.1,0.2-0.2,0.2-0.3c-0.4,0.1-0.9,0.2-1.3,0.2c-0.8,0.1-1.3,0.5-1.8,1.1c-4.5,5.8-7.6,12.3-9.4,19.5c-1,3.9-1.6,7.8-1.8,11.9
	c-0.1,1.5,0,3,0,4.6C21.1,129.2,21.1,129.2,21.1,129.4z M38.9,95.9c0-1.4-0.7-1.9-1.9-1.6c-0.1,0-0.2,0.1-0.3,0.1
	c-1.7,0.9-2.8,2.4-3.2,4.3c-0.1,0.6-0.1,1.2,0.5,1.6c0.5,0.4,1.1,0.3,1.7,0c0.9-0.4,1.6-1.1,2.2-1.9C38.4,97.6,38.8,96.7,38.9,95.9z
	"/>
<path fill="#567897" d="M141.4,120.9c-0.4,2.1-0.8,4.1-1.2,6.1c0,0.2-0.1,0.3-0.3,0.3c-1.7,0-3.4,0-5.1,0c0,0-0.1,0-0.2,0
	c1.5-8.1,3.1-16.3,4.6-24.4c1.7,0,3.3,0,4.9,0c-0.1,0.8-0.3,1.6-0.4,2.3c0,0,0,0,0.1,0c0.1-0.1,0.3-0.3,0.4-0.4
	c1.6-1.6,3.5-2.4,5.9-2.2c2.3,0.3,4.1,1.9,4.7,4.4c0.6,2.2,0.4,4.5-0.3,6.6c-0.8,2.6-2.2,4.9-4.5,6.5c-1.7,1.2-3.6,1.8-5.7,1.7
	C143.3,121.8,142.3,121.5,141.4,120.9z M149.4,110.1c0-0.3,0-0.7-0.1-1.1c-0.3-1.6-1.6-2.2-3.1-1.6c-0.6,0.3-1.1,0.7-1.5,1.2
	c-0.7,0.9-1.2,1.9-1.5,3c-0.3,1.4-0.6,2.9-0.8,4.4c-0.2,0.9-0.1,1.1,0.8,1.4c0.1,0,0.3,0.1,0.4,0.1c1.4,0.3,2.5-0.1,3.5-1.1
	C148.6,114.7,149.2,112.5,149.4,110.1z"/>
<path fill="#567897" d="M111.4,111.8c-0.2,1-0.4,1.9-0.5,2.9c-0.4,2.2-0.8,4.3-1.2,6.5c0,0.1-0.2,0.3-0.3,0.3c-1.7,0-3.4,0-5.1,0
	c0,0-0.1,0-0.2,0c0.1-0.5,0.2-0.9,0.2-1.4c1.1-5.6,2.1-11.1,3.2-16.7c0.4-2.2,0.8-4.3,1.2-6.5c0-0.2,0.1-0.3,0.3-0.3
	c1.7,0,3.4,0,5.1,0c0.1,0,0.1,0,0.2,0c-0.9,4.8-1.8,9.6-2.8,14.5c0.2-0.2,0.3-0.3,0.4-0.4c2.1-2.5,4.3-4.9,6.4-7.4
	c0.2-0.2,0.3-0.3,0.6-0.3c1.8,0,3.5,0,5.3,0c0.1,0,0.2,0,0.4,0c-0.1,0.2-0.2,0.3-0.3,0.3c-2.3,2.6-4.7,5.3-7,7.9
	c-0.2,0.2-0.2,0.3-0.1,0.6c1.4,3.1,2.8,6.1,4.2,9.2c0.1,0.1,0.1,0.2,0.2,0.4c-0.2,0-0.3,0-0.4,0c-1.7,0-3.4,0-5.2,0
	c-0.3,0-0.4-0.1-0.5-0.3c-1.3-2.9-2.6-5.9-4-8.8C111.6,112.2,111.5,112,111.4,111.8z"/>
<path fill="#567897" d="M81.6,121.4c0.1-0.7,0.3-1.4,0.4-2.2c-0.3,0.3-0.5,0.7-0.8,0.9c-1.8,1.6-3.8,2.1-6.1,1.3
	c-1.7-0.6-2.6-1.9-3.1-3.5c-0.5-1.5-0.5-3-0.3-4.5c0.4-2.6,1.3-5,3.1-7.1c2.7-3.1,6.1-4.3,10.2-3.6c2.4,0.4,3.8,2.2,4.1,4.6
	c0.2,1.6-0.1,3.2-0.4,4.8c-0.6,2.9-1.1,5.9-1.7,8.8c-0.1,0.3-0.2,0.5-0.5,0.4c-1.5,0-3,0-4.4,0C81.9,121.4,81.8,121.4,81.6,121.4z
	 M77.2,114.1c0,0.9,0.1,1.7,0.5,2.4c0.4,0.6,0.9,1,1.6,0.8c0.5-0.1,0.9-0.2,1.4-0.5c0.8-0.5,1.3-1.2,1.7-2c0.5-0.9,0.8-1.8,0.9-2.8
	c0.2-1.1,0.4-2.2,0.4-3.3c0.1-1.4-1.1-2.2-2.5-1.8c-0.7,0.2-1.2,0.6-1.6,1.1C78,109.8,77.3,111.9,77.2,114.1z"/>
<path fill="#567897" d="M165.4,121.4c0.1-0.7,0.3-1.4,0.4-1.9c-0.3,0.3-0.8,0.7-1.3,1c-1.8,1.3-3.8,1.7-5.9,0.8
	c-1.5-0.6-2.3-1.9-2.8-3.4c-0.5-1.6-0.5-3.3-0.2-5c0.4-2.7,1.5-5.1,3.4-7c2.6-2.8,5.9-3.9,9.7-3.2c2.4,0.4,4,2.2,4.2,4.7
	c0.2,1.5,0,3-0.3,4.5c-0.6,3.1-1.2,6.1-1.8,9.2c0,0.2-0.1,0.3-0.3,0.3c-1.6,0-3.2,0-4.8,0C165.6,121.5,165.5,121.5,165.4,121.4z
	 M161,114.3c0,0.7,0.1,1.4,0.4,2.1c0.4,0.8,1.1,1.1,1.9,0.9c0.4-0.1,0.9-0.3,1.3-0.5c0.8-0.5,1.4-1.3,1.8-2.2
	c0.5-1.1,0.7-2.3,0.9-3.4c0.1-0.8,0.3-1.5,0.3-2.3c0-1.3-0.8-2.1-2.1-1.9c-0.6,0.1-1.2,0.4-1.6,0.8
	C161.9,109.5,161.2,111.8,161,114.3z"/>
<path fill="#567897" d="M193.5,114.4c0.1,1,0.4,1.8,1.2,2.3c0.8,0.5,1.7,0.7,2.6,0.7c2.2,0.1,4.3-0.5,6.2-1.6
	c0.1-0.1,0.2-0.1,0.4-0.2c0,0.2,0,0.2,0,0.3c-0.3,1.4-0.5,2.7-0.8,4.1c0,0.2-0.1,0.3-0.3,0.4c-1.4,0.7-2.9,1-4.5,1.2
	c-1.5,0.2-3,0.2-4.5-0.1c-3.1-0.7-5-2.7-5.5-5.8c-0.6-4.1,0.6-7.7,3.7-10.5c2.7-2.5,5.9-3.3,9.5-2.2c4.3,1.3,4.6,5.7,3.1,8.1
	c-0.7,1.2-1.9,1.9-3.2,2.4c-1.8,0.7-3.7,0.9-5.6,0.9C195,114.4,194.2,114.4,193.5,114.4z M194,110.4c1-0.1,2-0.1,2.9-0.2
	c0.8-0.1,1.6-0.2,2.3-0.6c0.6-0.4,0.9-0.9,0.8-1.6c-0.1-0.7-0.6-1-1.2-1.1C196.8,106.3,194.3,108.2,194,110.4z"/>
<path fill="#567897" d="M122.2,116.2c0.4,0.2,0.8,0.4,1.2,0.6c1.4,0.6,2.8,1,4.4,1c0.3,0,0.7-0.1,1-0.2c1-0.4,1.2-1.5,0.5-2.3
	c-0.3-0.3-0.7-0.6-1.1-0.9c-0.6-0.4-1.3-0.7-1.9-1.1c-1.1-0.7-2.1-1.6-2.5-2.9c-0.6-1.9-0.1-3.6,1.1-5.1c1-1.3,2.5-2,4.1-2.4
	c2.3-0.5,4.6-0.4,6.8,0.4c0.7,0.2,0.7,0.3,0.5,0.9c-0.2,1.2-0.5,2.3-0.7,3.6c-0.1-0.1-0.3-0.1-0.4-0.2c-1.4-0.6-2.9-1-4.4-0.8
	c-0.4,0-0.8,0.2-1.1,0.4c-0.7,0.4-0.8,1.3-0.2,1.8c0.5,0.5,1.1,0.8,1.6,1.2c0.7,0.5,1.5,0.8,2.2,1.3c2,1.5,2.5,3.3,1.8,5.6
	c-0.5,1.9-1.8,3.1-3.6,3.8c-1.9,0.8-3.9,1-5.9,0.8c-1.2-0.1-2.4-0.4-3.6-0.9c-0.8-0.4-0.8-0.4-0.7-1.3c0.2-1,0.4-2,0.6-3.1
	C122.2,116.4,122.2,116.3,122.2,116.2z"/>
<path fill="#567897" d="M188.4,107.8c-0.4-0.2-0.8-0.4-1.3-0.5c-3.6-1-6.9,1.1-7.7,4.8c-0.2,0.9-0.3,1.9,0,2.8
	c0.4,1.3,1.4,2.2,2.7,2.4c1.7,0.2,3.3-0.3,4.8-1c0.1-0.1,0.2-0.1,0.4-0.2c-0.1,0.4-0.1,0.6-0.2,0.9c-0.2,1.1-0.4,2.3-0.6,3.4
	c0,0.3-0.2,0.4-0.4,0.5c-1.1,0.5-2.3,0.7-3.5,0.8c-1.5,0.1-3,0.1-4.4-0.4c-2.8-1-4.3-2.9-4.7-5.8c-0.6-4.8,1.7-9.3,6-11.5
	c2.9-1.5,6-1.8,9.2-0.9c0.5,0.1,0.5,0.2,0.4,0.6c-0.2,1.3-0.5,2.5-0.7,3.8C188.4,107.7,188.4,107.7,188.4,107.8z"/>
<path fill="#567897" d="M103.6,116.2c-0.2,0.9-0.3,1.6-0.4,2.4c-0.1,0.7-0.3,1.3-0.4,2c0,0.3-0.2,0.4-0.4,0.5
	c-1.1,0.4-2.2,0.7-3.4,0.8c-1.5,0.1-3.1,0.1-4.6-0.4c-2.8-1-4.4-3-4.7-5.9c-0.7-6.4,3.6-11.8,10-12.7c1.8-0.2,3.5-0.2,5.3,0.4
	c0.5,0.1,0.5,0.2,0.4,0.6c-0.2,1.2-0.5,2.5-0.7,3.7c0,0.1-0.1,0.2-0.1,0.3c-0.1,0-0.2-0.1-0.3-0.1c-3.4-1.6-7.2,0-8.4,3.5
	c-0.4,1.2-0.6,2.3-0.3,3.6c0.4,1.7,1.8,2.7,3.6,2.6c1.4-0.1,2.7-0.4,4-1C103.3,116.3,103.4,116.3,103.6,116.2z"/>
<path fill="#567897" d="M62.7,103c1.6,0,3.2,0,4.9,0c-0.2,1-0.4,2-0.6,3c0.4-0.5,0.8-1,1.2-1.5c0.5-0.5,1-0.9,1.6-1.2
	c0.6-0.3,1.2-0.5,1.8-0.7c0.6-0.2,1.3-0.1,2,0c-0.4,1.8-0.7,3.6-1.1,5.4c-0.5,0-1,0-1.4,0c-1.5,0.1-2.6,0.9-3.4,2.1
	c-0.9,1.3-1.3,2.7-1.6,4.2c-0.4,2.3-0.9,4.6-1.3,7c0,0.3-0.1,0.4-0.4,0.3c-1.6,0-3.2,0-4.8,0c-0.1,0-0.2,0-0.4,0
	C60.3,115.4,61.5,109.2,62.7,103z"/>
<path fill="#567897" d="M204.9,119.7c0-1.4,1.2-2.6,2.6-2.6c1.3,0,2.2,0.9,2.2,2.2c0,1.3-1.2,2.5-2.6,2.5
	C205.8,121.9,204.9,120.9,204.9,119.7z M209.3,119.3c0-1-0.8-1.8-1.8-1.8c-1.2,0-2.2,1-2.3,2.2c0,1,0.8,1.9,1.8,1.8
	C208.3,121.5,209.3,120.5,209.3,119.3z"/>
<path fill="#567897" d="M208.1,120.8c-0.3,0.1-0.5,0-0.5-0.3c0-0.2-0.1-0.3-0.2-0.5c0-0.2-0.2-0.2-0.4-0.2c-0.2,0-0.2,0.1-0.3,0.3
	c0,0.3-0.1,0.5-0.1,0.8c-0.1,0-0.2,0-0.4,0c0.2-0.9,0.3-1.8,0.5-2.8c0.3,0,0.6,0,0.9,0c0.4,0,0.7,0.2,0.8,0.5c0.1,0.3-0.1,0.8-0.4,1
	c-0.1,0.1-0.2,0.1-0.3,0.2C207.8,120.1,207.9,120.5,208.1,120.8z M206.9,119.5c0.4-0.1,0.7-0.1,1-0.3c0.3-0.2,0.3-0.6,0-0.8
	c-0.2-0.1-0.5-0.1-0.8-0.1c-0.1,0-0.1,0.3-0.1,0.4C206.9,119.1,206.9,119.2,206.9,119.5z"/>
<g>
	<path fill="#567897" d="M14.8,141.2c-0.1,0-0.2,0.1-0.4,0.1c-0.2,0-0.4,0.1-0.6,0.1c-0.4,0-0.7-0.1-0.9-0.3s-0.2-0.6-0.1-1.1
		l1.1-5.2h-1l0.2-0.7h1l0.4-2h0.8l-0.4,2h1.3l-0.2,0.7h-1.3l-1,4.9c0,0.2-0.1,0.3-0.1,0.5c0,0.1,0,0.2,0,0.3c0,0.1,0.1,0.1,0.2,0.2
		c0.1,0,0.2,0.1,0.4,0.1c0.1,0,0.2,0,0.3,0c0.1,0,0.2,0,0.4-0.1L14.8,141.2z"/>
	<path fill="#567897" d="M15.8,141.2l2.1-9.9h0.8l-0.8,3.8c0.4-0.3,0.8-0.6,1.2-0.9c0.4-0.2,0.8-0.3,1.3-0.3c0.4,0,0.8,0.1,1.2,0.2
		c0.3,0.2,0.6,0.4,0.8,0.8c0.1,0.3,0.2,0.5,0.1,0.8c0,0.3-0.1,0.6-0.1,0.8l-1,4.7h-0.8l1-4.7c0.1-0.6,0.1-1.1-0.1-1.4
		s-0.7-0.5-1.3-0.5c-0.3,0-0.5,0-0.7,0.1s-0.4,0.2-0.6,0.3c-0.2,0.1-0.4,0.3-0.5,0.4c-0.2,0.2-0.3,0.3-0.4,0.5
		c-0.1,0.2-0.2,0.5-0.3,0.7c-0.1,0.2-0.1,0.4-0.2,0.7l-0.8,3.9H15.8z"/>
	<path fill="#567897" d="M24.3,137.8c-0.1,0.4-0.1,0.8-0.1,1.1c0,0.3,0.1,0.6,0.3,0.9c0.1,0.3,0.4,0.5,0.6,0.6
		c0.3,0.2,0.6,0.2,1,0.2c0.5,0,1-0.1,1.5-0.4s0.8-0.7,1-1.2h0.9c-0.2,0.3-0.4,0.7-0.6,0.9s-0.5,0.5-0.8,0.8c-0.3,0.2-0.6,0.4-1,0.5
		s-0.8,0.2-1.2,0.2c-0.6,0-1-0.1-1.4-0.3s-0.7-0.5-0.9-0.8s-0.3-0.7-0.3-1.2c0-0.5,0-0.9,0.1-1.5s0.3-1,0.5-1.5
		c0.2-0.5,0.5-0.9,0.9-1.2c0.4-0.3,0.8-0.6,1.2-0.8c0.4-0.2,0.9-0.3,1.4-0.3c1,0,1.7,0.3,2.1,1c0.4,0.7,0.5,1.7,0.2,2.9H24.3z
		 M29.1,137.1c0.1-0.3,0.1-0.7,0.1-1c0-0.3-0.1-0.6-0.3-0.8c-0.1-0.2-0.3-0.4-0.6-0.5c-0.3-0.1-0.6-0.2-0.9-0.2
		c-0.4,0-0.7,0.1-1,0.2s-0.6,0.3-0.8,0.6c-0.2,0.2-0.5,0.5-0.6,0.8c-0.2,0.3-0.3,0.6-0.4,1H29.1z"/>
	<path fill="#567897" d="M40.5,138H39l-1.1,3.1h-0.8l1.1-3.1h-1.9l-1.1,3.1h-0.8l1.1-3.1H34l0.2-0.8h1.6l0.7-1.9h-1.5l0.2-0.8h1.7
		l1.1-2.9h0.8l-1.1,2.9h1.9l1-2.9h0.8l-1,2.9h1.4l-0.2,0.8H40l-0.7,1.9h1.4L40.5,138z M37.3,135.3l-0.7,1.9h1.9l0.7-1.9H37.3z"/>
	<path fill="#567897" d="M46,134h-2.5l0.1-0.6c0.4,0,0.7-0.1,1-0.1c0.3,0,0.6-0.1,0.8-0.3c0.3-0.1,0.5-0.3,0.7-0.6
		c0.2-0.2,0.4-0.6,0.6-1h0.7l-2.1,9.7h-0.9L46,134z"/>
	<path fill="#567897" d="M63.4,134.5c0.1,0.3,0.2,0.6,0.2,0.9c0,0.2-0.1,0.6-0.2,1.1l-1,4.6h-2l1-4.7c0.1-0.3,0.1-0.5,0-0.7
		c-0.1-0.3-0.4-0.5-0.8-0.5c-0.5,0-0.9,0.2-1.2,0.7c-0.2,0.2-0.3,0.5-0.3,0.8l-0.9,4.4h-1.9l0.9-4.4c0.1-0.4,0.1-0.8,0.1-1
		c-0.1-0.4-0.4-0.5-0.8-0.5c-0.5,0-1,0.2-1.2,0.5c-0.1,0.2-0.3,0.5-0.3,0.9l-0.9,4.4h-1.9l1.6-7.3h1.9l-0.2,1.1
		c0.3-0.4,0.6-0.7,0.8-0.8c0.4-0.3,0.9-0.4,1.5-0.4c0.6,0,1,0.1,1.3,0.4c0.2,0.2,0.4,0.5,0.4,0.9c0.3-0.4,0.7-0.7,1.1-1
		c0.4-0.2,0.9-0.3,1.4-0.3c0.3,0,0.6,0.1,0.9,0.2C63,134,63.2,134.2,63.4,134.5z"/>
	<path fill="#567897" d="M67.7,136.7c0.4,0,0.6-0.1,0.8-0.2c0.3-0.1,0.5-0.3,0.5-0.5c0.1-0.3,0-0.5-0.2-0.6
		c-0.2-0.1-0.5-0.2-0.9-0.2c-0.5,0-0.8,0.1-1,0.3c-0.2,0.2-0.3,0.4-0.4,0.7h-1.9c0.2-0.6,0.5-1.2,0.9-1.6c0.6-0.6,1.6-1,2.8-1
		c0.8,0,1.5,0.2,2,0.5c0.6,0.3,0.7,0.9,0.6,1.8l-0.7,3.4c0,0.2-0.1,0.5-0.2,0.8c0,0.3,0,0.4,0,0.5c0,0.1,0.1,0.2,0.2,0.2l-0.1,0.3
		h-2.1c0-0.1,0-0.3,0-0.4c0-0.1,0-0.3,0-0.4c-0.3,0.3-0.7,0.5-1.1,0.7c-0.5,0.2-1,0.4-1.5,0.4c-0.7,0-1.2-0.2-1.5-0.6
		c-0.4-0.4-0.5-0.9-0.3-1.6c0.2-0.9,0.7-1.6,1.5-2c0.4-0.2,1-0.4,1.8-0.5L67.7,136.7z M68.7,137.6c-0.1,0.1-0.3,0.1-0.4,0.2
		c-0.1,0-0.3,0.1-0.5,0.1l-0.4,0.1c-0.4,0.1-0.7,0.2-0.9,0.3c-0.3,0.2-0.5,0.4-0.6,0.8c-0.1,0.3,0,0.6,0.1,0.7
		c0.2,0.1,0.4,0.2,0.6,0.2c0.4,0,0.8-0.1,1.2-0.4c0.4-0.2,0.7-0.7,0.8-1.3L68.7,137.6z"/>
	<path fill="#567897" d="M78.9,136.2l-1.1,4.9h-2l0.9-4.5c0.1-0.4,0.1-0.7,0-0.9c-0.1-0.4-0.4-0.6-1-0.6c-0.7,0-1.2,0.3-1.5,0.8
		c-0.2,0.3-0.3,0.7-0.4,1.1l-0.8,4h-1.9l1.6-7.3h1.9l-0.2,1.1c0.3-0.4,0.6-0.6,0.9-0.8c0.5-0.3,1-0.4,1.6-0.4c0.8,0,1.3,0.2,1.7,0.6
		C79,134.7,79.1,135.3,78.9,136.2z"/>
	<path fill="#567897" d="M83.1,136.7c0.4,0,0.6-0.1,0.8-0.2c0.3-0.1,0.5-0.3,0.5-0.5c0.1-0.3,0-0.5-0.2-0.6
		c-0.2-0.1-0.5-0.2-0.9-0.2c-0.5,0-0.8,0.1-1,0.3c-0.2,0.2-0.3,0.4-0.4,0.7h-1.9c0.2-0.6,0.5-1.2,0.9-1.6c0.6-0.6,1.6-1,2.8-1
		c0.8,0,1.5,0.2,2,0.5c0.6,0.3,0.7,0.9,0.6,1.8l-0.7,3.4c0,0.2-0.1,0.5-0.2,0.8c0,0.3,0,0.4,0,0.5c0,0.1,0.1,0.2,0.2,0.2l-0.1,0.3
		h-2.1c0-0.1,0-0.3,0-0.4c0-0.1,0-0.3,0-0.4c-0.3,0.3-0.7,0.5-1.1,0.7c-0.5,0.2-1,0.4-1.5,0.4c-0.7,0-1.2-0.2-1.5-0.6
		c-0.4-0.4-0.5-0.9-0.3-1.6c0.2-0.9,0.7-1.6,1.5-2c0.4-0.2,1-0.4,1.8-0.5L83.1,136.7z M84.1,137.6c-0.1,0.1-0.3,0.1-0.4,0.2
		c-0.1,0-0.3,0.1-0.5,0.1l-0.4,0.1c-0.4,0.1-0.7,0.2-0.9,0.3c-0.3,0.2-0.5,0.4-0.6,0.8c-0.1,0.3,0,0.6,0.1,0.7
		c0.2,0.1,0.4,0.2,0.6,0.2c0.4,0,0.8-0.1,1.2-0.4c0.4-0.2,0.7-0.7,0.8-1.3L84.1,137.6z"/>
	<path fill="#567897" d="M91.8,133.8c0.4,0.2,0.7,0.5,0.9,1.1l0.2-1.1h1.9l-1.5,7c-0.2,0.9-0.5,1.7-0.9,2.1
		c-0.7,0.8-1.9,1.2-3.4,1.2c-0.9,0-1.7-0.2-2.2-0.6c-0.5-0.4-0.7-0.9-0.6-1.7h2.1c0,0.2,0.1,0.4,0.2,0.5c0.2,0.2,0.5,0.3,1,0.3
		c0.7,0,1.2-0.2,1.5-0.7c0.2-0.3,0.4-0.8,0.5-1.5l0.1-0.5c-0.3,0.3-0.5,0.6-0.7,0.7c-0.4,0.3-1,0.4-1.6,0.4c-0.9,0-1.6-0.3-2-1
		c-0.4-0.7-0.5-1.6-0.3-2.7c0.2-1.1,0.7-2,1.4-2.8c0.7-0.7,1.6-1.1,2.6-1.1C91.3,133.7,91.6,133.7,91.8,133.8z M92.2,137.5
		c0.1-0.7,0.1-1.2-0.1-1.6c-0.2-0.4-0.6-0.5-1.1-0.5c-0.7,0-1.2,0.3-1.6,1c-0.2,0.3-0.4,0.8-0.5,1.2c-0.1,0.4-0.1,0.8,0,1.1
		c0.1,0.6,0.5,0.9,1.2,0.9c0.4,0,0.9-0.2,1.2-0.5C91.8,138.8,92,138.2,92.2,137.5z"/>
	<path fill="#567897" d="M101.8,135.1c0.2,0.4,0.3,0.9,0.2,1.5c0,0.3-0.1,0.8-0.2,1.5h-5c-0.1,0.7,0,1.3,0.4,1.6
		c0.2,0.2,0.5,0.3,0.9,0.3c0.4,0,0.7-0.1,1-0.3c0.2-0.1,0.3-0.3,0.5-0.5h2c-0.1,0.4-0.5,0.9-1,1.3c-0.8,0.7-1.7,1.1-2.9,1.1
		c-0.9,0-1.7-0.3-2.3-0.9c-0.6-0.6-0.7-1.6-0.4-2.9c0.3-1.3,0.8-2.2,1.6-2.9c0.8-0.7,1.7-1,2.7-1c0.6,0,1.1,0.1,1.6,0.3
		C101.2,134.2,101.6,134.6,101.8,135.1z M97.1,136.8h3c0.1-0.5,0-0.9-0.2-1.2c-0.2-0.3-0.5-0.4-0.9-0.4c-0.4,0-0.8,0.1-1.1,0.4
		S97.2,136.3,97.1,136.8z"/>
	<path fill="#567897" d="M108.2,134.8l0.7-3.5h1.9l-2.1,9.9h-1.9l0.2-1c-0.4,0.4-0.7,0.8-1.1,1s-0.9,0.3-1.4,0.3
		c-0.9,0-1.5-0.3-1.9-1c-0.4-0.7-0.5-1.6-0.3-2.7c0.3-1.3,0.8-2.2,1.5-3s1.6-1.1,2.5-1.1c0.4,0,0.8,0.1,1.1,0.3
		C107.8,134.2,108,134.4,108.2,134.8z M107.6,137.6c0.2-0.9,0.1-1.5-0.3-1.9c-0.2-0.2-0.5-0.4-0.9-0.4c-0.6,0-1,0.2-1.4,0.6
		c-0.4,0.4-0.6,1-0.7,1.6c-0.1,0.7-0.1,1.2,0.1,1.6s0.5,0.6,1.1,0.6s1-0.2,1.4-0.6S107.5,138.3,107.6,137.6z"/>
	<path fill="#567897" d="M119,136.5c0-0.3,0-0.5-0.1-0.7c-0.2-0.3-0.5-0.4-0.9-0.4c-0.6,0-1.2,0.3-1.5,1c-0.2,0.3-0.4,0.8-0.5,1.4
		c-0.1,0.5-0.1,1-0.1,1.3c0.1,0.6,0.5,0.9,1.1,0.9c0.4,0,0.8-0.1,1-0.4c0.2-0.2,0.4-0.6,0.5-0.9h2c-0.2,0.6-0.5,1.1-1,1.7
		c-0.8,0.8-1.8,1.3-2.9,1.3s-2-0.4-2.4-1.1c-0.4-0.7-0.5-1.6-0.3-2.7c0.3-1.3,0.8-2.2,1.5-2.9c0.8-0.7,1.7-1.1,2.8-1.1
		c0.9,0,1.6,0.2,2.1,0.6c0.5,0.4,0.7,1.1,0.6,2.2H119z"/>
	<path fill="#567897" d="M122.9,141.2H121l2.1-9.9h1.9L122.9,141.2z"/>
	<path fill="#567897" d="M127.7,141.4c-1.3,0-2.1-0.4-2.6-1.1c-0.5-0.8-0.6-1.7-0.3-2.8c0.2-1.1,0.7-2,1.5-2.8s1.8-1.2,3.1-1.2
		s2.1,0.4,2.6,1.2c0.5,0.8,0.6,1.7,0.3,2.8c-0.2,1.1-0.7,2-1.5,2.8C130,141.1,129,141.4,127.7,141.4z M130.3,137.5
		c0.2-0.7,0.1-1.3-0.1-1.7c-0.2-0.4-0.6-0.6-1.2-0.6s-1,0.2-1.4,0.6c-0.4,0.4-0.7,1-0.8,1.7c-0.2,0.7-0.1,1.3,0.1,1.7
		c0.2,0.4,0.6,0.6,1.2,0.6s1-0.2,1.4-0.6C129.8,138.8,130.1,138.3,130.3,137.5z"/>
	<path fill="#567897" d="M136,133.8l-0.9,4.4c-0.1,0.4-0.1,0.7-0.1,0.9c0.1,0.4,0.4,0.6,0.9,0.6c0.7,0,1.2-0.3,1.5-0.8
		c0.2-0.3,0.3-0.7,0.4-1.1l0.8-4h1.9l-1.6,7.3h-1.9l0.2-1c0,0-0.1,0.1-0.2,0.2c-0.1,0.1-0.2,0.2-0.3,0.3c-0.4,0.3-0.7,0.5-1,0.6
		c-0.3,0.1-0.6,0.1-1,0.1c-1.1,0-1.7-0.4-1.9-1.2c-0.1-0.4-0.1-1.1,0.1-1.9l0.9-4.4H136z"/>
	<path fill="#567897" d="M146.7,134.8l0.7-3.5h1.9l-2.1,9.9h-1.9l0.2-1c-0.4,0.4-0.7,0.8-1.1,1c-0.4,0.2-0.9,0.3-1.4,0.3
		c-0.9,0-1.5-0.3-1.9-1c-0.4-0.7-0.5-1.6-0.3-2.7c0.3-1.3,0.8-2.2,1.5-3c0.7-0.7,1.6-1.1,2.5-1.1c0.4,0,0.8,0.1,1.1,0.3
		C146.4,134.2,146.6,134.4,146.7,134.8z M146.2,137.6c0.2-0.9,0.1-1.5-0.3-1.9c-0.2-0.2-0.5-0.4-0.9-0.4c-0.6,0-1,0.2-1.4,0.6
		c-0.4,0.4-0.6,1-0.7,1.6c-0.1,0.7-0.1,1.2,0.1,1.6s0.5,0.6,1.1,0.6c0.5,0,1-0.2,1.4-0.6C145.8,138.8,146,138.3,146.2,137.6z"/>
	<path fill="#567897" d="M158.4,136.3c0-0.5-0.2-0.9-0.5-1.2c-0.3-0.3-0.7-0.4-1.3-0.4c-0.4,0-0.8,0.1-1.1,0.3
		c-0.3,0.2-0.6,0.4-0.9,0.7c-0.3,0.3-0.5,0.6-0.6,1c-0.2,0.4-0.3,0.7-0.4,1.1c-0.1,0.4-0.1,0.7-0.1,1.1c0,0.4,0.1,0.7,0.2,1
		c0.1,0.3,0.3,0.5,0.6,0.7c0.3,0.2,0.6,0.3,1,0.3c0.6,0,1.1-0.2,1.6-0.5s0.8-0.8,1-1.4h0.9c-0.2,0.4-0.3,0.8-0.6,1.1
		c-0.2,0.3-0.5,0.6-0.8,0.8s-0.6,0.4-1,0.5s-0.8,0.2-1.2,0.2c-0.6,0-1-0.1-1.4-0.3c-0.4-0.2-0.7-0.5-0.9-0.8
		c-0.2-0.3-0.3-0.7-0.3-1.2c0-0.5,0-1,0.1-1.5c0.1-0.5,0.3-1,0.5-1.4c0.2-0.5,0.5-0.9,0.9-1.2s0.8-0.6,1.2-0.8
		c0.5-0.2,1-0.3,1.5-0.3c0.8,0,1.5,0.2,1.9,0.6s0.6,1,0.6,1.8H158.4z"/>
	<path fill="#567897" d="M162.4,141.4c-0.5,0-0.9-0.1-1.2-0.2c-0.4-0.2-0.7-0.4-0.9-0.7s-0.4-0.7-0.5-1.2c-0.1-0.5,0-1,0.1-1.6
		c0.1-0.5,0.3-1,0.5-1.5s0.5-0.9,0.9-1.2c0.3-0.3,0.8-0.6,1.2-0.8c0.5-0.2,1-0.3,1.5-0.3c0.6,0,1,0.1,1.4,0.3
		c0.4,0.2,0.7,0.5,0.9,0.8c0.2,0.3,0.3,0.7,0.4,1.2c0,0.5,0,1-0.1,1.5c-0.1,0.6-0.3,1.1-0.6,1.5s-0.6,0.9-0.9,1.2
		c-0.4,0.3-0.8,0.6-1.2,0.8C163.4,141.3,162.9,141.4,162.4,141.4z M165.7,137.6c0.1-0.4,0.1-0.8,0.1-1.2c0-0.4-0.1-0.7-0.2-1
		c-0.1-0.3-0.3-0.5-0.6-0.6c-0.3-0.2-0.6-0.2-1.1-0.2c-0.4,0-0.8,0.1-1.2,0.3c-0.3,0.2-0.6,0.4-0.9,0.7s-0.5,0.6-0.6,1
		c-0.2,0.4-0.3,0.7-0.4,1.1c-0.1,0.4-0.1,0.8-0.1,1.2c0,0.4,0.1,0.7,0.3,1s0.4,0.5,0.6,0.6c0.3,0.1,0.6,0.2,1,0.2
		c0.4,0,0.8-0.1,1.2-0.3c0.3-0.2,0.6-0.4,0.9-0.7s0.5-0.6,0.6-1C165.4,138.4,165.6,138,165.7,137.6z"/>
	<path fill="#567897" d="M167.7,141.2h-0.8l1.5-7.1h0.8l-0.2,1.1h0c0.3-0.4,0.7-0.7,1.1-0.9c0.4-0.2,0.9-0.3,1.4-0.3
		c0.3,0,0.6,0,0.8,0.1c0.2,0.1,0.4,0.2,0.5,0.3c0.1,0.1,0.2,0.3,0.3,0.4c0.1,0.2,0.1,0.3,0.2,0.5c0.3-0.5,0.7-0.8,1.2-1
		c0.5-0.2,0.9-0.3,1.4-0.3c0.5,0,0.9,0.1,1.1,0.2c0.3,0.2,0.4,0.4,0.5,0.6c0.1,0.3,0.1,0.6,0.1,0.9c0,0.3-0.1,0.7-0.1,1l-1,4.5h-0.8
		l1-4.9c0.1-0.3,0.1-0.5,0.1-0.7c0-0.2-0.1-0.4-0.1-0.5c-0.1-0.1-0.2-0.3-0.4-0.3s-0.4-0.1-0.7-0.1c-0.3,0-0.6,0.1-0.9,0.2
		s-0.6,0.3-0.9,0.6c-0.1,0.1-0.2,0.3-0.3,0.4s-0.2,0.3-0.3,0.5c-0.1,0.2-0.1,0.3-0.2,0.5c-0.1,0.2-0.1,0.3-0.1,0.5l-0.8,3.9h-0.8
		l1-4.9c0.1-0.3,0.1-0.5,0.1-0.7c0-0.2-0.1-0.4-0.1-0.5c-0.1-0.1-0.2-0.3-0.4-0.3c-0.2-0.1-0.4-0.1-0.7-0.1c-0.3,0-0.6,0.1-0.9,0.2
		c-0.3,0.1-0.6,0.3-0.9,0.6c-0.1,0.1-0.2,0.3-0.3,0.4c-0.1,0.2-0.2,0.3-0.3,0.5s-0.1,0.3-0.2,0.5c-0.1,0.2-0.1,0.3-0.1,0.5
		L167.7,141.2z"/>
	<path fill="#567897" d="M178.4,144h-0.8l2.1-10h0.8l-0.3,1.3h0c0.2-0.2,0.4-0.4,0.6-0.6c0.2-0.2,0.5-0.3,0.7-0.5
		c0.2-0.1,0.5-0.2,0.8-0.3s0.5-0.1,0.7-0.1c0.6,0,1.1,0.1,1.4,0.3c0.4,0.2,0.6,0.5,0.8,0.8c0.2,0.3,0.3,0.7,0.3,1.2
		c0,0.5,0,1-0.1,1.5c-0.1,0.5-0.3,1-0.5,1.4c-0.2,0.5-0.5,0.9-0.8,1.2c-0.3,0.3-0.7,0.6-1.2,0.8s-0.9,0.3-1.5,0.3
		c-0.5,0-1-0.1-1.4-0.3c-0.4-0.2-0.7-0.6-0.9-1L178.4,144z M179.8,137.6c-0.1,0.4-0.1,0.8-0.1,1.2s0.1,0.7,0.3,1
		c0.2,0.3,0.4,0.5,0.6,0.6c0.3,0.2,0.6,0.2,1,0.2c0.4,0,0.8-0.1,1.2-0.3c0.4-0.2,0.7-0.4,0.9-0.7c0.3-0.3,0.5-0.6,0.7-1
		s0.3-0.8,0.4-1.3c0.2-0.9,0.1-1.6-0.3-2.1c-0.4-0.5-0.9-0.7-1.6-0.7c-0.4,0-0.7,0.1-1.1,0.2c-0.3,0.2-0.6,0.4-0.9,0.6
		c-0.3,0.3-0.5,0.6-0.7,1C180,136.8,179.9,137.2,179.8,137.6z"/>
	<path fill="#567897" d="M190.4,137c0.2,0,0.3,0,0.6-0.1c0.2,0,0.4-0.1,0.6-0.2s0.3-0.2,0.3-0.3c0.1-0.2,0.1-0.3,0.1-0.4
		c0-0.2,0.1-0.4,0-0.6s-0.1-0.3-0.2-0.5c-0.1-0.1-0.3-0.2-0.5-0.3c-0.2-0.1-0.5-0.1-0.8-0.1c-0.6,0-1.1,0.1-1.5,0.3
		c-0.4,0.2-0.7,0.7-0.9,1.3h-0.8c0.1-0.4,0.3-0.8,0.5-1.1s0.5-0.5,0.8-0.7s0.6-0.3,1-0.4c0.4-0.1,0.7-0.1,1.1-0.1c0.4,0,0.7,0,1,0.1
		c0.3,0.1,0.5,0.2,0.7,0.4c0.2,0.2,0.3,0.4,0.4,0.7c0.1,0.3,0.1,0.6,0,1L192,140c-0.1,0.3-0.1,0.5,0,0.6c0.1,0.1,0.3,0.1,0.7-0.1
		l-0.1,0.6c-0.1,0-0.2,0-0.3,0.1c-0.1,0-0.3,0.1-0.4,0.1c-0.1,0-0.2,0-0.4,0c-0.3,0-0.4-0.2-0.5-0.4s0-0.4,0-0.7
		c-0.4,0.4-0.9,0.7-1.4,0.9s-1,0.3-1.5,0.3c-0.3,0-0.6,0-0.9-0.1c-0.3-0.1-0.5-0.2-0.7-0.4c-0.2-0.2-0.3-0.4-0.4-0.6
		c-0.1-0.3-0.1-0.6,0-0.9c0.2-1.2,1.2-1.9,3-2.2L190.4,137z M191.7,137.4c-0.4,0.1-0.8,0.2-1.1,0.3s-0.7,0.1-1.1,0.1
		c-0.6,0-1.2,0.2-1.6,0.4c-0.4,0.2-0.7,0.6-0.8,1.1c0,0.2,0,0.4,0,0.6c0.1,0.2,0.1,0.3,0.3,0.4s0.3,0.2,0.4,0.2s0.4,0.1,0.6,0.1
		c0.3,0,0.7,0,1-0.1c0.3-0.1,0.6-0.2,0.9-0.4c0.3-0.2,0.5-0.4,0.7-0.6c0.2-0.3,0.3-0.6,0.4-0.9L191.7,137.4z"/>
	<path fill="#567897" d="M194.3,141.2h-0.8l1.5-7.1h0.8l-0.2,1c0.4-0.3,0.8-0.6,1.2-0.9c0.4-0.2,0.8-0.3,1.3-0.3
		c0.4,0,0.8,0.1,1.2,0.2c0.3,0.2,0.6,0.4,0.8,0.8c0.1,0.3,0.2,0.5,0.1,0.8c0,0.3-0.1,0.6-0.1,0.8l-1,4.7h-0.8l1-4.7
		c0.1-0.6,0.1-1.1-0.1-1.4s-0.7-0.5-1.3-0.5c-0.3,0-0.5,0-0.7,0.1c-0.2,0.1-0.4,0.2-0.6,0.3c-0.2,0.1-0.4,0.3-0.5,0.4
		c-0.2,0.2-0.3,0.3-0.4,0.5c-0.1,0.2-0.2,0.5-0.3,0.7s-0.1,0.4-0.2,0.7L194.3,141.2z"/>
	<path fill="#567897" d="M200.4,143.1c0.1,0,0.2,0,0.3,0.1s0.2,0,0.4,0c0.2,0,0.4-0.1,0.6-0.2c0.2-0.1,0.3-0.3,0.5-0.5
		c0.1-0.2,0.3-0.4,0.4-0.6c0.1-0.2,0.2-0.4,0.3-0.6l-1.2-7.2h0.9l1,6.1l3.6-6.1h0.9l-4.2,7.1c-0.3,0.5-0.5,0.9-0.7,1.2
		c-0.2,0.4-0.4,0.7-0.7,0.9s-0.5,0.4-0.7,0.6c-0.2,0.1-0.5,0.2-0.8,0.2c-0.1,0-0.3,0-0.4,0c-0.1,0-0.3,0-0.4-0.1L200.4,143.1z"/>
</g>
</svg>
